<svg id="Layer_1" data-name="Layer 1" xmlns="http://www.w3.org/2000/svg" width="184.25" height="184.25" viewBox="0 0 184.25 184.25"><defs><style>.cls-1{fill:none;}.cls-2{fill:#ef3743;}</style></defs><path class="cls-1" d="M131.55,121.91h-4.8v6.72h4.34a3.55,3.55,0,0,0,2.58-.94,3.34,3.34,0,0,0,1-2.51,3.27,3.27,0,0,0-.89-2.35A2.92,2.92,0,0,0,131.55,121.91Z"/><polygon class="cls-1" points="129.1 49.78 125.47 58.79 132.69 58.79 129.1 49.78"/><polygon class="cls-2" points="51.06 67.33 56.54 67.33 56.54 47.5 64.89 47.5 64.89 42.52 42.56 42.52 42.56 47.5 51.06 47.5 51.06 67.33"/><path class="cls-2" d="M123.9,63.17h10.36l1.67,4.16h5.84L131.52,42.52h-4.88L116.39,67.33h5.84Zm5.2-13.39,3.59,9h-7.22Z"/><path class="cls-2" d="M138.92,129.39a8.14,8.14,0,0,0-1.26-10.11,8.35,8.35,0,0,0-6-2.36H121.3v24.81h5.45v-8.26h3.67l5.16,8.26h6.19l-6.05-9.57A7.09,7.09,0,0,0,138.92,129.39Zm-5.25-1.7a3.55,3.55,0,0,1-2.58.94h-4.34v-6.72h4.8a2.92,2.92,0,0,1,2.21.92,3.27,3.27,0,0,1,.89,2.35A3.34,3.34,0,0,1,133.67,127.69Z"/><path class="cls-2" d="M55.91,141.73a12.77,12.77,0,0,0,5.57-1.23,13,13,0,0,0,4.05-3l-3.75-3.16a8,8,0,0,1-5.87,2.37,7.7,7.7,0,0,1-5.61-2.22,8,8,0,0,1,0-11.17,7.68,7.68,0,0,1,5.59-2.24,8.08,8.08,0,0,1,5.86,2.36l3.76-3.15a13.23,13.23,0,0,0-4.07-3,12.66,12.66,0,0,0-5.55-1.24,13.3,13.3,0,0,0-9.47,3.67,12.71,12.71,0,0,0,0,18.28A13.28,13.28,0,0,0,55.91,141.73Z"/><polygon class="cls-2" points="53.51 108.78 48.27 108.78 48.27 108.8 53.29 114 58.23 114 63.3 108.8 63.3 108.78 57.98 108.78 55.77 111.1 53.51 108.78"/></svg>