<svg id="Layer_1" data-name="Layer 1" xmlns="http://www.w3.org/2000/svg" width="184.25" height="184.25" viewBox="0 0 184.25 184.25"><defs><style>.cls-1{fill:#0054a6;}</style></defs><path class="cls-1" d="M31.15,50.4h5.34V84.64H31.15Zm5.53,0h1.81l3.33,34.24H40Zm8.66,0h1.81L43.82,84.64H42Zm2,0h5.38V84.64H47.35Z"/><path class="cls-1" d="M72.93,50.4V76.57a3.23,3.23,0,0,0,6.45,0V50.4h5.38V76.77c0,4.59-4.15,8.17-8.6,8.17s-8.61-3.58-8.61-8.17V50.4Z"/><path class="cls-1" d="M106.73,50.4V84.64h-5.38V50.4Zm2,0,5.09,34.24H112L106.92,50.4Zm10.66,0V84.64h-5.38V50.4Z"/><path class="cls-1" d="M141.9,82.73V52.31h-4.6V50.4h14.62v1.91h-4.64V82.73h4.64v1.91H137.3V82.73Z"/><path class="cls-1" d="M41.82,99.32l-4.5,21h9.1L42,99.32h2.65l7.28,34.24H49.2l-2.34-10.81h-10l-2.3,10.81H31.84l7.39-34.24Z"/><path class="cls-1" d="M77.38,99.32a8.24,8.24,0,0,1,8.17,8.17v3.42a7.88,7.88,0,0,1-7.19,7.87l8.36,14.78h-3l-8.12-14.48H71.12v14.48H68.48V99.32ZM83,110.62v-3.09a5.83,5.83,0,0,0-5.82-5.77h-6v14.82h6A5.71,5.71,0,0,0,83,110.62Z"/><path class="cls-1" d="M99.93,101.76V99.32h20.93v2.44h-9.14v31.8h-2.65v-31.8Z"/><path class="cls-1" d="M136.17,125.68v-1.17h2.64v1.12a5.83,5.83,0,0,0,11.65,0v-2c0-4.06-3.33-5.19-6.46-5.87s-7.83-2.5-7.83-8.22v-2.35a8.47,8.47,0,0,1,16.93,0v1.27h-2.64v-1.22a5.83,5.83,0,0,0-11.65,0v2.3c0,4,3.38,5.14,6.36,5.82,3.23.73,7.93,2.64,7.93,8.22v2.1a8.1,8.1,0,0,1-8.46,8.17C139.94,133.85,136.17,130.52,136.17,125.68Z"/></svg>