<svg id="Layer_1" data-name="Layer 1" xmlns="http://www.w3.org/2000/svg" width="300" height="300" viewBox="0 0 300 300"><defs><style>.cls-1{fill:#fff;}.cls-2{fill:none;stroke:#3f4679;stroke-linecap:round;stroke-linejoin:round;stroke-width:2px;}</style></defs><circle class="cls-1" cx="150" cy="150" r="103.4"/><line class="cls-2" x1="147.68" y1="19.26" x2="147.68" y2="67.53"/><line class="cls-2" x1="147.68" y1="232.47" x2="147.68" y2="284.74"/><line class="cls-2" x1="117.59" y1="39.22" x2="122.32" y2="56.87"/><line class="cls-2" x1="172" y1="242.27" x2="177.76" y2="263.78"/><line class="cls-2" x1="65.48" y1="69.31" x2="78.4" y2="82.23"/><line class="cls-2" x1="214.12" y1="217.95" x2="229.87" y2="233.69"/><line class="cls-2" x1="35.4" y1="121.42" x2="53.05" y2="126.14"/><line class="cls-2" x1="238.44" y1="175.82" x2="259.95" y2="181.58"/><line class="cls-2" x1="35.4" y1="181.58" x2="53.05" y2="176.86"/><line class="cls-2" x1="238.44" y1="127.18" x2="259.95" y2="121.42"/><line class="cls-2" x1="65.48" y1="233.69" x2="78.4" y2="220.77"/><line class="cls-2" x1="214.12" y1="85.05" x2="229.87" y2="69.31"/><line class="cls-2" x1="117.59" y1="263.78" x2="122.32" y2="246.13"/><line class="cls-2" x1="172" y1="60.73" x2="177.76" y2="39.22"/><line class="cls-2" x1="81.31" y1="37.05" x2="105.44" y2="78.85"/><line class="cls-2" x1="187.91" y1="221.69" x2="214.04" y2="266.95"/><line class="cls-2" x1="32.72" y1="85.63" x2="74.52" y2="109.77"/><line class="cls-2" x1="217.36" y1="192.23" x2="262.63" y2="218.37"/><line class="cls-2" x1="14.94" y1="152" x2="93.21" y2="152"/><line class="cls-2" x1="198.14" y1="152" x2="280.41" y2="152"/><line class="cls-2" x1="32.72" y1="218.37" x2="74.52" y2="194.23"/><line class="cls-2" x1="217.36" y1="111.77" x2="262.63" y2="85.63"/><line class="cls-2" x1="81.31" y1="266.95" x2="105.44" y2="225.15"/><line class="cls-2" x1="187.91" y1="82.31" x2="214.04" y2="37.05"/><rect class="cls-2" x="113.04" y="93.53" width="61.2" height="120.94" rx="2.26"/><path class="cls-2" d="M118.3,89.53H176a2.26,2.26,0,0,1,2.26,2.26V208.21"/><rect class="cls-2" x="117.04" y="103.37" width="53.2" height="91.78"/><circle class="cls-2" cx="144.14" cy="205.17" r="5.43"/><line class="cls-2" x1="134.2" y1="98.62" x2="154.08" y2="98.62"/><line class="cls-2" x1="158.73" y1="98.62" x2="158.94" y2="98.62"/><path class="cls-2" d="M141.32,128.17c-3.62,9.62-10,42.18,1.41,42.18,12.88,0,16.94-20.2-1.33-20.2-1.85,0-1.76,1-.17,1s19.67-2.91,20.2-13.5-25.59-8.82-38.29,8.21"/><line class="cls-2" x1="145.18" y1="109.8" x2="163.21" y2="109.8"/><line class="cls-2" x1="145.18" y1="115.8" x2="163.21" y2="115.8"/><line class="cls-2" x1="155.18" y1="187.76" x2="163.21" y2="187.76"/></svg>