<svg id="Layer_1" data-name="Layer 1" xmlns="http://www.w3.org/2000/svg" width="300" height="300" viewBox="0 0 300 300"><defs><style>.cls-1{fill:#fff;}.cls-2{fill:none;stroke:#3f4679;stroke-linecap:round;stroke-linejoin:round;stroke-width:2px;}</style></defs><circle class="cls-1" cx="150" cy="150" r="103.4"/><rect class="cls-2" x="68.64" y="142.37" width="51.2" height="101.94" rx="2.26"/><path class="cls-2" d="M73.9,138.37h47.69a2.26,2.26,0,0,1,2.26,2.26v97.42"/><rect class="cls-2" x="72.64" y="152.21" width="43.2" height="75.78"/><circle class="cls-2" cx="94.74" cy="236.33" r="4.12"/><line class="cls-2" x1="84.81" y1="147.46" x2="104.68" y2="147.46"/><line class="cls-2" x1="109.34" y1="147.46" x2="109.55" y2="147.46"/><path class="cls-2" d="M92.91,174.45C90.05,182.06,85,207.79,94,207.79c10.18,0,13.39-16-1-16-1.46,0-1.39.77-.14.77s15.56-2.3,16-10.67-20.23-7-30.27,6.48"/><line class="cls-2" x1="94.78" y1="158.64" x2="110.81" y2="158.64"/><line class="cls-2" x1="94.78" y1="164.64" x2="110.81" y2="164.64"/><line class="cls-2" x1="102.78" y1="217.6" x2="110.81" y2="217.6"/><path class="cls-2" d="M64.64,160.4H50.77a2.26,2.26,0,0,1-2.26-2.26V53.73a2.26,2.26,0,0,1,2.26-2.26H225.46a2.26,2.26,0,0,1,2.26,2.26v64"/><line class="cls-2" x1="156.12" y1="160.4" x2="127.85" y2="160.4"/><path class="cls-2" d="M53.77,47.47H229.46a2.26,2.26,0,0,1,2.26,2.26v68"/><polyline class="cls-2" points="64.64 152.23 52.51 152.23 52.51 55.47 223.72 55.47 223.72 117.77"/><line class="cls-2" x1="156.12" y1="152.23" x2="127.85" y2="152.23"/><path class="cls-2" d="M137,74.83c-5.33,14.07-14.69,61.68,2.08,61.68,19,0,25-29.55-1.95-29.55-2.73,0-2.6,1.42-.26,1.42s29-4.26,29.77-19.74-37.7-12.9-56.42,12"/><line class="cls-2" x1="188.65" y1="64.9" x2="216.68" y2="64.9"/><line class="cls-2" x1="188.65" y1="70.9" x2="216.68" y2="70.9"/><line class="cls-2" x1="60.81" y1="156.4" x2="64.1" y2="156.4"/><line class="cls-2" x1="52.81" y1="156.4" x2="56.1" y2="156.4"/><polyline class="cls-2" points="131.1 160.4 131.1 178.04 154.39 178.04 154.39 160.4"/><path class="cls-2" d="M134.93,160.4v4a7.82,7.82,0,1,0,15.63,0v-4"/><line class="cls-2" x1="127.85" y1="178.04" x2="156.12" y2="178.04"/><line class="cls-2" x1="156.12" y1="182.04" x2="127.85" y2="182.04"/><rect class="cls-2" x="160.12" y="125.77" width="87.2" height="132.94" rx="2.26"/><path class="cls-2" d="M165.38,121.77h83.69a2.26,2.26,0,0,1,2.26,2.26V252.44"/><rect class="cls-2" x="164.12" y="129.77" width="79.2" height="120.77"/><path class="cls-2" d="M201.12,164c-4.86,12.9-13.38,56.59,1.89,56.59,17.28,0,22.73-27.11-1.78-27.11-2.48,0-2.36,1.3-.23,1.3s26.4-3.91,27.11-18.11-34.33-11.84-51.38,11"/><line class="cls-2" x1="218.26" y1="136.2" x2="236.29" y2="136.2"/><line class="cls-2" x1="218.26" y1="142.2" x2="236.29" y2="142.2"/><line class="cls-2" x1="228.26" y1="243.14" x2="236.29" y2="243.14"/><line class="cls-2" x1="196.82" y1="254.7" x2="210.03" y2="254.7"/><path class="cls-2" d="M102.78,248.31a107.39,107.39,0,0,0,82.76,14.39"/><path class="cls-2" d="M54.06,164.4a106.57,106.57,0,0,0,10.58,40.81"/><path class="cls-2" d="M255.25,209.44a107.22,107.22,0,0,0-19.53-127.9"/></svg>