<svg id="Layer_1" data-name="Layer 1" xmlns="http://www.w3.org/2000/svg" width="300" height="300" viewBox="0 0 300 300"><defs><style>.cls-1{fill:#fff;}.cls-2{fill:none;stroke:#3f4679;stroke-linecap:round;stroke-linejoin:round;stroke-width:2px;}</style></defs><circle class="cls-1" cx="150" cy="150" r="103.4"/><line class="cls-2" x1="164.22" y1="100.65" x2="164.22" y2="114.72"/><line class="cls-2" x1="164.22" y1="127.33" x2="164.22" y2="141.4"/><line class="cls-2" x1="146.58" y1="110.84" x2="158.76" y2="117.88"/><line class="cls-2" x1="169.68" y1="124.18" x2="181.87" y2="131.22"/><line class="cls-2" x1="146.58" y1="131.22" x2="158.76" y2="124.18"/><line class="cls-2" x1="169.68" y1="117.88" x2="181.87" y2="110.84"/><line class="cls-2" x1="155.03" y1="105.11" x2="158.57" y2="111.24"/><line class="cls-2" x1="169.87" y1="130.82" x2="173.41" y2="136.94"/><line class="cls-2" x1="145.85" y1="121.03" x2="152.92" y2="121.03"/><line class="cls-2" x1="175.53" y1="121.03" x2="182.6" y2="121.03"/><line class="cls-2" x1="155.03" y1="136.94" x2="158.57" y2="130.82"/><line class="cls-2" x1="169.87" y1="111.24" x2="173.41" y2="105.11"/><line class="cls-2" x1="149.23" y1="155.57" x2="163.03" y2="155.57"/><line class="cls-2" x1="142.33" y1="163.57" x2="186.12" y2="163.57"/><line class="cls-2" x1="142.33" y1="167.57" x2="183.12" y2="167.57"/><line class="cls-2" x1="142.33" y1="171.57" x2="186.12" y2="171.57"/><line class="cls-2" x1="142.33" y1="175.57" x2="183.12" y2="175.57"/><line class="cls-2" x1="142.33" y1="179.57" x2="163.72" y2="179.57"/><line class="cls-2" x1="149.23" y1="183.57" x2="186.12" y2="183.57"/><line class="cls-2" x1="142.33" y1="187.57" x2="183.12" y2="187.57"/><line class="cls-2" x1="142.33" y1="191.57" x2="186.12" y2="191.57"/><line class="cls-2" x1="142.33" y1="195.57" x2="183.12" y2="195.57"/><line class="cls-2" x1="142.33" y1="199.57" x2="186.12" y2="199.57"/><line class="cls-2" x1="142.33" y1="203.57" x2="183.12" y2="203.57"/><line class="cls-2" x1="142.33" y1="207.57" x2="163.72" y2="207.57"/><line class="cls-2" x1="149.23" y1="211.57" x2="186.12" y2="211.57"/><line class="cls-2" x1="142.33" y1="215.57" x2="183.12" y2="215.57"/><line class="cls-2" x1="142.33" y1="219.57" x2="186.12" y2="219.57"/><line class="cls-2" x1="142.33" y1="223.57" x2="183.12" y2="223.57"/><line class="cls-2" x1="142.33" y1="227.57" x2="186.12" y2="227.57"/><line class="cls-2" x1="142.33" y1="231.57" x2="183.12" y2="231.57"/><rect class="cls-2" x="198.71" y="65.31" width="32.97" height="55.71"/><polyline class="cls-2" points="202.71 61.31 235.67 61.31 235.67 117.03"/><polyline class="cls-2" points="206.71 57.31 239.67 57.31 239.67 113.03"/><path class="cls-2" d="M198.71,90c24-23.13,9.53,21.83,33,11.47"/><circle class="cls-2" cx="102.26" cy="181.58" r="19.8"/><polygon class="cls-2" points="111.07 182.11 96.74 173.31 96.74 190.9 111.07 182.11"/><path class="cls-2" d="M55.36,158.81a103.4,103.4,0,1,0,189.31-57.56"/><path class="cls-2" d="M55.36,158.81c0-85.71,108.86-135.54,108.86-70.43"/><polyline class="cls-2" points="168.76 83.84 164.22 88.38 159.68 83.84"/><path class="cls-2" d="M203.85,173.23c2.2.63,4.39,1.26,6-.31,3.14-3.13-2.52-8.79.61-11.92s8.79,2.52,11.93-.62-2.52-8.79.61-11.92,8.8,2.52,11.93-.62c1.57-1.57.94-3.77.31-6"/><path class="cls-2" d="M212,181.4c2.2.63,4.4,1.26,6-.31,3.13-3.13-2.53-8.79.61-11.92s8.79,2.52,11.92-.61-2.52-8.8.62-11.93,8.79,2.52,11.93-.62c1.56-1.56.93-3.76.3-6"/></svg>