<svg id="Layer_1" data-name="Layer 1" xmlns="http://www.w3.org/2000/svg" width="300" height="300" viewBox="0 0 300 300"><defs><style>.cls-1{fill:#fff;}.cls-2{fill:none;stroke:#3f4679;stroke-linecap:round;stroke-linejoin:round;stroke-width:2px;}</style></defs><circle class="cls-1" cx="150" cy="150" r="103.4"/><line class="cls-2" x1="104.71" y1="82.46" x2="104.71" y2="96.53"/><line class="cls-2" x1="104.71" y1="109.14" x2="104.71" y2="123.22"/><line class="cls-2" x1="87.06" y1="92.65" x2="99.25" y2="99.69"/><line class="cls-2" x1="110.17" y1="105.99" x2="122.36" y2="113.03"/><line class="cls-2" x1="87.06" y1="113.03" x2="99.25" y2="105.99"/><line class="cls-2" x1="110.17" y1="99.69" x2="122.36" y2="92.65"/><line class="cls-2" x1="95.52" y1="86.92" x2="99.06" y2="93.05"/><line class="cls-2" x1="110.36" y1="112.63" x2="113.9" y2="118.75"/><line class="cls-2" x1="86.33" y1="102.84" x2="93.4" y2="102.84"/><line class="cls-2" x1="116.01" y1="102.84" x2="123.09" y2="102.84"/><line class="cls-2" x1="95.52" y1="118.75" x2="99.06" y2="112.63"/><line class="cls-2" x1="110.36" y1="93.05" x2="113.9" y2="86.92"/><line class="cls-2" x1="241.38" y1="151.19" x2="241.38" y2="165.26"/><line class="cls-2" x1="241.38" y1="177.87" x2="241.38" y2="191.95"/><line class="cls-2" x1="223.73" y1="161.38" x2="235.92" y2="168.42"/><line class="cls-2" x1="246.84" y1="174.72" x2="259.02" y2="181.76"/><line class="cls-2" x1="223.73" y1="181.76" x2="235.92" y2="174.72"/><line class="cls-2" x1="246.84" y1="168.42" x2="259.02" y2="161.38"/><line class="cls-2" x1="232.19" y1="155.65" x2="235.72" y2="161.78"/><line class="cls-2" x1="247.03" y1="181.36" x2="250.57" y2="187.48"/><line class="cls-2" x1="223" y1="171.57" x2="230.07" y2="171.57"/><line class="cls-2" x1="252.68" y1="171.57" x2="259.75" y2="171.57"/><line class="cls-2" x1="232.19" y1="187.48" x2="235.72" y2="181.36"/><line class="cls-2" x1="247.03" y1="161.78" x2="250.57" y2="155.65"/><polygon class="cls-2" points="219.1 147.83 158.31 147.83 158.31 59.7 198.42 59.7 219.1 80.38 219.1 147.83"/><polyline class="cls-2" points="219.1 80.38 198.42 80.38 198.42 59.7"/><polygon class="cls-2" points="132.26 240.79 71.47 240.79 71.47 152.67 111.58 152.67 132.26 173.35 132.26 240.79"/><polyline class="cls-2" points="132.26 173.35 111.58 173.35 111.58 152.67"/><polyline class="cls-2" points="154.31 143.83 154.31 55.7 194.42 55.7"/><polyline class="cls-2" points="150.31 139.83 150.31 51.7 190.42 51.7"/><polyline class="cls-2" points="146.31 135.83 146.31 47.7 186.42 47.7"/><path class="cls-2" d="M143,193.39c27.36-13.82,81.92-9.5,81.92,16.71,0,23.74-38.5,31.13-38.5-54.53"/><polyline class="cls-2" points="181.87 160.33 186.42 155.79 190.96 160.33"/><path class="cls-2" d="M96.92,179.64c-3.62,9.62-10,42.18,1.41,42.18,12.88,0,16.94-20.21-1.32-20.21-1.86,0-1.77,1-.18,1s19.68-2.91,20.21-13.5-25.59-8.82-38.3,8.21"/></svg>