<svg id="Layer_1" data-name="Layer 1" xmlns="http://www.w3.org/2000/svg" width="300" height="300" viewBox="0 0 300 300"><defs><style>.cls-1{fill:#fff;}.cls-2{fill:none;stroke:#3f4679;stroke-linecap:round;stroke-linejoin:round;stroke-width:2px;}</style></defs><circle class="cls-1" cx="150" cy="150" r="103.4"/><rect class="cls-2" x="163.12" y="91.53" width="61.2" height="120.94" rx="2.26"/><path class="cls-2" d="M168.38,87.53h57.69a2.26,2.26,0,0,1,2.26,2.26V206.21"/><rect class="cls-2" x="167.12" y="101.37" width="53.2" height="91.78"/><circle class="cls-2" cx="194.22" cy="203.17" r="5.43"/><line class="cls-2" x1="184.29" y1="96.62" x2="204.16" y2="96.62"/><line class="cls-2" x1="208.82" y1="96.62" x2="209.03" y2="96.62"/><line class="cls-2" x1="179.23" y1="109.88" x2="193.03" y2="109.88"/><line class="cls-2" x1="172.33" y1="117.88" x2="216.12" y2="117.88"/><line class="cls-2" x1="172.33" y1="121.88" x2="213.12" y2="121.88"/><line class="cls-2" x1="172.33" y1="125.88" x2="216.12" y2="125.88"/><line class="cls-2" x1="172.33" y1="129.88" x2="213.12" y2="129.88"/><line class="cls-2" x1="172.33" y1="133.88" x2="193.72" y2="133.88"/><line class="cls-2" x1="179.23" y1="137.88" x2="216.12" y2="137.88"/><line class="cls-2" x1="172.33" y1="141.88" x2="213.12" y2="141.88"/><line class="cls-2" x1="172.33" y1="145.88" x2="216.12" y2="145.88"/><line class="cls-2" x1="172.33" y1="149.88" x2="213.12" y2="149.88"/><line class="cls-2" x1="172.33" y1="153.88" x2="216.12" y2="153.88"/><line class="cls-2" x1="172.33" y1="157.88" x2="213.12" y2="157.88"/><line class="cls-2" x1="172.33" y1="161.88" x2="193.72" y2="161.88"/><line class="cls-2" x1="179.23" y1="165.88" x2="216.12" y2="165.88"/><line class="cls-2" x1="172.33" y1="169.88" x2="213.12" y2="169.88"/><line class="cls-2" x1="172.33" y1="173.88" x2="216.12" y2="173.88"/><line class="cls-2" x1="172.33" y1="177.88" x2="213.12" y2="177.88"/><line class="cls-2" x1="172.33" y1="181.88" x2="216.12" y2="181.88"/><line class="cls-2" x1="172.33" y1="185.88" x2="213.12" y2="185.88"/><line class="cls-2" x1="134.34" y1="33.75" x2="134.34" y2="47.82"/><line class="cls-2" x1="134.34" y1="60.43" x2="134.34" y2="74.5"/><line class="cls-2" x1="116.69" y1="43.94" x2="128.88" y2="50.97"/><line class="cls-2" x1="139.79" y1="57.28" x2="151.98" y2="64.32"/><line class="cls-2" x1="116.69" y1="64.32" x2="128.88" y2="57.28"/><line class="cls-2" x1="139.79" y1="50.97" x2="151.98" y2="43.94"/><line class="cls-2" x1="125.15" y1="38.21" x2="128.68" y2="44.34"/><line class="cls-2" x1="139.99" y1="63.92" x2="143.52" y2="70.04"/><line class="cls-2" x1="115.96" y1="54.13" x2="123.03" y2="54.13"/><line class="cls-2" x1="145.64" y1="54.13" x2="152.71" y2="54.13"/><line class="cls-2" x1="125.15" y1="70.04" x2="128.68" y2="63.92"/><line class="cls-2" x1="139.99" y1="44.34" x2="143.52" y2="38.21"/><line class="cls-2" x1="194.22" y1="212.47" x2="194.22" y2="214.97"/><line class="cls-2" x1="194.22" y1="227.58" x2="194.22" y2="241.65"/><line class="cls-2" x1="178.97" y1="212.47" x2="188.76" y2="218.12"/><line class="cls-2" x1="199.68" y1="224.43" x2="211.87" y2="231.46"/><line class="cls-2" x1="176.58" y1="231.46" x2="188.76" y2="224.43"/><line class="cls-2" x1="199.68" y1="218.12" x2="209.48" y2="212.47"/><line class="cls-2" x1="199.88" y1="231.07" x2="203.41" y2="237.19"/><line class="cls-2" x1="175.85" y1="221.28" x2="182.92" y2="221.28"/><line class="cls-2" x1="205.53" y1="221.28" x2="212.6" y2="221.28"/><line class="cls-2" x1="185.04" y1="237.19" x2="188.57" y2="231.07"/><rect class="cls-2" x="73.13" y="91.53" width="61.2" height="120.94" rx="2.26"/><path class="cls-2" d="M78.39,87.53h57.69a2.26,2.26,0,0,1,2.26,2.26V206.21"/><rect class="cls-2" x="77.13" y="101.37" width="53.2" height="91.78"/><circle class="cls-2" cx="104.23" cy="203.17" r="5.43"/><line class="cls-2" x1="94.3" y1="96.62" x2="114.17" y2="96.62"/><line class="cls-2" x1="118.83" y1="96.62" x2="119.04" y2="96.62"/><line class="cls-2" x1="82.34" y1="105.88" x2="104.23" y2="105.88"/><line class="cls-2" x1="115.23" y1="105.88" x2="126.13" y2="105.88"/><line class="cls-2" x1="82.34" y1="181.88" x2="104.23" y2="181.88"/><line class="cls-2" x1="115.23" y1="181.88" x2="126.13" y2="181.88"/><line class="cls-2" x1="82.34" y1="109.88" x2="95.99" y2="109.88"/><line class="cls-2" x1="101.99" y1="109.88" x2="110.1" y2="109.88"/><line class="cls-2" x1="116.1" y1="109.88" x2="126.13" y2="109.88"/><line class="cls-2" x1="126.13" y1="177.88" x2="120.47" y2="177.88"/><line class="cls-2" x1="114.47" y1="177.88" x2="98.37" y2="177.88"/><line class="cls-2" x1="92.37" y1="177.88" x2="82.34" y2="177.88"/><line class="cls-2" x1="82.34" y1="157.88" x2="95.99" y2="157.88"/><line class="cls-2" x1="101.99" y1="157.88" x2="110.1" y2="157.88"/><line class="cls-2" x1="116.1" y1="157.88" x2="126.13" y2="157.88"/><line class="cls-2" x1="82.34" y1="113.88" x2="86.46" y2="113.88"/><line class="cls-2" x1="106.05" y1="113.88" x2="126.13" y2="113.88"/><line class="cls-2" x1="82.34" y1="161.88" x2="86.46" y2="161.88"/><line class="cls-2" x1="96.9" y1="161.88" x2="126.13" y2="161.88"/><line class="cls-2" x1="82.34" y1="117.88" x2="112.07" y2="117.88"/><line class="cls-2" x1="122.49" y1="117.88" x2="126.13" y2="117.88"/><line class="cls-2" x1="82.34" y1="173.88" x2="112.07" y2="173.88"/><line class="cls-2" x1="122.49" y1="173.88" x2="126.13" y2="173.88"/><line class="cls-2" x1="82.34" y1="121.88" x2="94.3" y2="121.88"/><line class="cls-2" x1="82.34" y1="129.88" x2="99.88" y2="129.88"/><line class="cls-2" x1="112.95" y1="129.88" x2="126.13" y2="129.88"/><line class="cls-2" x1="82.34" y1="133.88" x2="91.11" y2="133.88"/><line class="cls-2" x1="101.11" y1="133.88" x2="112.14" y2="133.88"/><line class="cls-2" x1="122.14" y1="133.88" x2="125.91" y2="133.88"/><line class="cls-2" x1="82.34" y1="165.88" x2="91.11" y2="165.88"/><line class="cls-2" x1="101.11" y1="165.88" x2="112.14" y2="165.88"/><line class="cls-2" x1="122.14" y1="165.88" x2="125.91" y2="165.88"/><line class="cls-2" x1="111.19" y1="141.88" x2="125.91" y2="141.88"/><line class="cls-2" x1="82.34" y1="137.88" x2="104.23" y2="137.88"/><line class="cls-2" x1="117.99" y1="137.88" x2="126.13" y2="137.88"/><line class="cls-2" x1="82.34" y1="169.88" x2="104.23" y2="169.88"/><line class="cls-2" x1="117.99" y1="169.88" x2="126.13" y2="169.88"/><line class="cls-2" x1="82.6" y1="141.88" x2="92.37" y2="141.88"/><line class="cls-2" x1="82.34" y1="145.88" x2="105" y2="145.88"/><line class="cls-2" x1="114.17" y1="145.88" x2="126.02" y2="145.88"/><line class="cls-2" x1="82.34" y1="149.88" x2="85.31" y2="149.88"/><line class="cls-2" x1="82.34" y1="185.88" x2="110.1" y2="185.88"/><path class="cls-2" d="M142.58,124.73c29.75,0-15.68,41.15,16.21,41.15"/><polyline class="cls-2" points="154.65 161.34 159.19 165.88 154.65 170.43"/></svg>