<svg id="Layer_1" data-name="Layer 1" xmlns="http://www.w3.org/2000/svg" width="300" height="300" viewBox="0 0 300 300"><defs><style>.cls-1{fill:#fff;}.cls-2,.cls-3{fill:none;stroke:#3f4679;stroke-linecap:round;stroke-linejoin:round;stroke-width:2px;}.cls-3{stroke-dasharray:0 3.92;}</style></defs><circle class="cls-1" cx="150" cy="150" r="103.4"/><rect class="cls-2" x="163.05" y="91.28" width="61.2" height="120.94" rx="2.26"/><path class="cls-2" d="M168.31,87.28H226a2.26,2.26,0,0,1,2.26,2.26V206"/><rect class="cls-2" x="167.05" y="101.12" width="53.2" height="91.78"/><circle class="cls-2" cx="194.15" cy="202.92" r="5.43"/><line class="cls-2" x1="184.22" y1="96.37" x2="204.09" y2="96.37"/><line class="cls-2" x1="208.75" y1="96.37" x2="208.96" y2="96.37"/><path class="cls-2" d="M191.33,125.92c-3.62,9.62-10,42.18,1.41,42.18,12.88,0,16.94-20.2-1.32-20.2-1.86,0-1.77,1-.18,1s19.68-2.91,20.21-13.5-25.59-8.82-38.3,8.21"/><line class="cls-2" x1="195.19" y1="107.55" x2="213.22" y2="107.55"/><line class="cls-2" x1="195.19" y1="113.55" x2="213.22" y2="113.55"/><line class="cls-2" x1="205.19" y1="185.51" x2="213.22" y2="185.51"/><line class="cls-2" x1="73.28" y1="90.71" x2="135.57" y2="90.71"/><polyline class="cls-2" points="68.07 97.58 134.54 97.58 134.54 212.22 68.07 212.22"/><polyline class="cls-2" points="70.64 87.28 138.54 87.28 138.54 201.92 134.54 201.92"/><path class="cls-2" d="M68.07,97.58c-2.64,0-4.22-2.31-3.51-5.15s3.43-5.15,6.08-5.15"/><path class="cls-2" d="M68.07,212.22a3.51,3.51,0,0,1-3.61-3.05V94.51"/><line class="cls-2" x1="70.74" y1="94.15" x2="133.02" y2="94.15"/><path class="cls-2" d="M98.43,125.92c-4,10.69-11.07,46.84,1.57,46.84,14.31,0,18.82-22.44-1.47-22.44-2.06,0-2,1.08-.19,1.08s21.85-3.23,22.44-15-28.42-9.8-42.53,9.12"/><line class="cls-2" x1="108.59" y1="107.92" x2="126.62" y2="107.92"/><line class="cls-2" x1="108.59" y1="113.92" x2="126.62" y2="113.92"/><line class="cls-2" x1="118.59" y1="201.92" x2="126.62" y2="201.92"/><line class="cls-2" x1="70.64" y1="103.21" x2="70.64" y2="103.21"/><line class="cls-3" x1="70.64" y1="107.13" x2="70.64" y2="203.47"/><line class="cls-2" x1="70.64" y1="205.45" x2="70.64" y2="205.45"/><line class="cls-2" x1="115.85" y1="225.56" x2="115.85" y2="239.63"/><line class="cls-2" x1="115.85" y1="252.24" x2="115.85" y2="266.31"/><line class="cls-2" x1="98.2" y1="235.75" x2="110.39" y2="242.78"/><line class="cls-2" x1="121.31" y1="249.09" x2="133.49" y2="256.12"/><line class="cls-2" x1="98.2" y1="256.12" x2="110.39" y2="249.09"/><line class="cls-2" x1="121.31" y1="242.78" x2="133.49" y2="235.75"/><line class="cls-2" x1="106.66" y1="230.02" x2="110.19" y2="236.15"/><line class="cls-2" x1="121.5" y1="255.73" x2="125.03" y2="261.85"/><line class="cls-2" x1="97.47" y1="245.94" x2="104.54" y2="245.94"/><line class="cls-2" x1="127.15" y1="245.94" x2="134.22" y2="245.94"/><line class="cls-2" x1="106.66" y1="261.85" x2="110.19" y2="255.73"/><line class="cls-2" x1="121.5" y1="236.15" x2="125.03" y2="230.02"/><line class="cls-2" x1="241.79" y1="127.08" x2="241.79" y2="141.15"/><line class="cls-2" x1="241.79" y1="153.76" x2="241.79" y2="167.83"/><line class="cls-2" x1="228.25" y1="139.64" x2="236.33" y2="144.3"/><line class="cls-2" x1="247.25" y1="150.61" x2="259.44" y2="157.65"/><line class="cls-2" x1="228.25" y1="155.27" x2="236.33" y2="150.61"/><line class="cls-2" x1="247.25" y1="144.3" x2="259.44" y2="137.27"/><line class="cls-2" x1="232.61" y1="131.54" x2="236.14" y2="137.67"/><line class="cls-2" x1="247.45" y1="157.25" x2="250.98" y2="163.37"/><line class="cls-2" x1="228.25" y1="147.46" x2="230.49" y2="147.46"/><line class="cls-2" x1="253.1" y1="147.46" x2="260.17" y2="147.46"/><line class="cls-2" x1="232.61" y1="163.37" x2="236.14" y2="157.25"/><line class="cls-2" x1="247.45" y1="137.67" x2="250.98" y2="131.54"/><polyline class="cls-2" points="200.42 74.7 195.88 79.24 191.34 74.7"/><path class="cls-2" d="M101.88,81.24c-.57-57.95,61.17-66.27,61.17-33.63,0,18.43-15.9,15.32-15.9.67,0-23.54,53.64-22,48.73,31"/></svg>