<svg id="Layer_1" data-name="Layer 1" xmlns="http://www.w3.org/2000/svg" width="300" height="300" viewBox="0 0 300 300"><defs><style>.cls-1{fill:#fff;}.cls-2{fill:none;stroke:#3f4679;stroke-linecap:round;stroke-linejoin:round;stroke-width:2px;}</style></defs><circle class="cls-1" cx="150" cy="150" r="103.4"/><rect class="cls-2" x="117.19" y="91.28" width="61.2" height="120.94" rx="2.26"/><path class="cls-2" d="M122.45,87.28h57.69a2.26,2.26,0,0,1,2.26,2.26V206"/><rect class="cls-2" x="121.19" y="101.12" width="53.2" height="91.78"/><circle class="cls-2" cx="148.29" cy="202.92" r="5.43"/><line class="cls-2" x1="138.36" y1="96.37" x2="158.23" y2="96.37"/><line class="cls-2" x1="162.89" y1="96.37" x2="163.1" y2="96.37"/><path class="cls-2" d="M145.47,125.92c-3.62,9.62-10,42.18,1.41,42.18,12.88,0,16.94-20.2-1.32-20.2-1.86,0-1.77,1-.18,1s19.68-2.91,20.21-13.5-25.59-8.82-38.3,8.21"/><line class="cls-2" x1="149.33" y1="107.55" x2="167.36" y2="107.55"/><line class="cls-2" x1="149.33" y1="113.55" x2="167.36" y2="113.55"/><line class="cls-2" x1="159.33" y1="185.51" x2="167.36" y2="185.51"/><line class="cls-2" x1="232.48" y1="154.97" x2="232.48" y2="169.04"/><line class="cls-2" x1="232.48" y1="181.65" x2="232.48" y2="195.73"/><line class="cls-2" x1="214.83" y1="165.16" x2="227.02" y2="172.2"/><line class="cls-2" x1="237.94" y1="178.5" x2="250.12" y2="185.54"/><line class="cls-2" x1="214.83" y1="185.54" x2="227.02" y2="178.5"/><line class="cls-2" x1="237.94" y1="172.2" x2="250.12" y2="165.16"/><line class="cls-2" x1="223.29" y1="159.43" x2="226.83" y2="165.56"/><line class="cls-2" x1="238.13" y1="185.14" x2="241.67" y2="191.26"/><line class="cls-2" x1="214.1" y1="175.35" x2="221.17" y2="175.35"/><line class="cls-2" x1="243.78" y1="175.35" x2="250.85" y2="175.35"/><line class="cls-2" x1="223.29" y1="191.26" x2="226.83" y2="185.14"/><line class="cls-2" x1="238.13" y1="165.56" x2="241.67" y2="159.43"/><line class="cls-2" x1="164.43" y1="59.03" x2="164.43" y2="73.1"/><line class="cls-2" x1="164.43" y1="85.71" x2="164.43" y2="87.13"/><line class="cls-2" x1="146.79" y1="69.22" x2="158.97" y2="76.26"/><line class="cls-2" x1="169.89" y1="82.56" x2="177.25" y2="86.81"/><line class="cls-2" x1="151.05" y1="87.13" x2="158.97" y2="82.56"/><line class="cls-2" x1="169.89" y1="76.26" x2="182.08" y2="69.22"/><line class="cls-2" x1="155.24" y1="63.49" x2="158.78" y2="69.62"/><line class="cls-2" x1="146.06" y1="79.41" x2="153.13" y2="79.41"/><line class="cls-2" x1="175.74" y1="79.41" x2="182.81" y2="79.41"/><line class="cls-2" x1="170.08" y1="69.62" x2="173.62" y2="63.49"/><polyline class="cls-2" points="195.53 156.54 190.99 152 195.53 147.46"/><path class="cls-2" d="M191.93,152c27.67,0,37.56-23.72,37.56-41.18,0-34.56-29.1-72.34-81.3-72.34A81.73,81.73,0,0,0,110.84,192.9"/></svg>