<svg id="Layer_1" data-name="Layer 1" xmlns="http://www.w3.org/2000/svg" width="300" height="300" viewBox="0 0 300 300"><defs><style>.cls-1{fill:#fff;}.cls-2,.cls-3{fill:none;stroke:#3f4679;stroke-linecap:round;stroke-linejoin:round;stroke-width:2px;}.cls-3{stroke-dasharray:0.01 4;}</style></defs><circle class="cls-1" cx="150" cy="150" r="103.4"/><rect class="cls-2" x="144.49" y="101.19" width="61.2" height="120.94" rx="2.26"/><path class="cls-2" d="M149.75,97.19h57.69a2.26,2.26,0,0,1,2.26,2.26V215.86"/><rect class="cls-2" x="148.49" y="111.03" width="53.2" height="91.78"/><circle class="cls-2" cx="175.59" cy="212.83" r="5.43"/><line class="cls-2" x1="165.66" y1="106.28" x2="185.53" y2="106.28"/><line class="cls-2" x1="190.19" y1="106.28" x2="190.4" y2="106.28"/><path class="cls-2" d="M172.77,135.83c-3.62,9.62-10,42.18,1.41,42.18,12.88,0,16.94-20.21-1.32-20.21-1.85,0-1.77,1-.18,1s19.68-2.91,20.21-13.5-25.59-8.82-38.3,8.21"/><line class="cls-2" x1="176.63" y1="117.46" x2="194.66" y2="117.46"/><line class="cls-2" x1="176.63" y1="123.46" x2="194.66" y2="123.46"/><line class="cls-2" x1="186.63" y1="195.42" x2="194.66" y2="195.42"/><line class="cls-2" x1="99.19" y1="81.31" x2="161.48" y2="81.31"/><line class="cls-2" x1="139.49" y1="202.81" x2="93.98" y2="202.81"/><polyline class="cls-2" points="93.98 88.17 160.45 88.17 160.45 93.19"/><polyline class="cls-2" points="96.55 77.88 164.45 77.88 164.45 93.19"/><path class="cls-2" d="M94,88.17c-2.64,0-4.22-2.3-3.51-5.15s3.43-5.14,6.08-5.14"/><path class="cls-2" d="M94,202.81a3.5,3.5,0,0,1-3.61-3.05V85.1"/><line class="cls-2" x1="96.65" y1="84.74" x2="158.93" y2="84.74"/><path class="cls-2" d="M139.49,120c-6-1.11-14.89.56-23,5.25a41,41,0,0,0-12.33,10.86"/><path class="cls-2" d="M124.34,116.52c-4,10.68-11.07,46.84,1.57,46.84,14.31,0,18.82-22.44-1.47-22.44-2.06,0-2,1.08-.19,1.08a40.94,40.94,0,0,0,15.24-4.9"/><line class="cls-3" x1="96.55" y1="93.8" x2="96.55" y2="196.04"/><line class="cls-2" x1="130.33" y1="30.12" x2="130.33" y2="44.19"/><line class="cls-2" x1="130.33" y1="56.8" x2="130.33" y2="70.88"/><line class="cls-2" x1="112.69" y1="40.31" x2="124.87" y2="47.35"/><line class="cls-2" x1="135.79" y1="53.65" x2="147.98" y2="60.69"/><line class="cls-2" x1="112.69" y1="60.69" x2="124.87" y2="53.65"/><line class="cls-2" x1="135.79" y1="47.35" x2="147.98" y2="40.31"/><line class="cls-2" x1="121.15" y1="34.58" x2="124.68" y2="40.71"/><line class="cls-2" x1="135.99" y1="60.29" x2="139.52" y2="66.41"/><line class="cls-2" x1="111.96" y1="50.5" x2="119.03" y2="50.5"/><line class="cls-2" x1="141.64" y1="50.5" x2="148.71" y2="50.5"/><line class="cls-2" x1="121.15" y1="66.41" x2="124.68" y2="60.29"/><line class="cls-2" x1="135.99" y1="40.71" x2="139.52" y2="34.58"/><line class="cls-2" x1="237.42" y1="172.87" x2="237.42" y2="186.95"/><line class="cls-2" x1="237.42" y1="199.55" x2="237.42" y2="213.63"/><line class="cls-2" x1="219.77" y1="183.06" x2="231.96" y2="190.1"/><line class="cls-2" x1="242.88" y1="196.4" x2="255.07" y2="203.44"/><line class="cls-2" x1="219.77" y1="203.44" x2="231.96" y2="196.4"/><line class="cls-2" x1="242.88" y1="190.1" x2="255.07" y2="183.06"/><line class="cls-2" x1="228.23" y1="177.34" x2="231.77" y2="183.46"/><line class="cls-2" x1="243.07" y1="203.04" x2="246.61" y2="209.16"/><line class="cls-2" x1="219.04" y1="193.25" x2="226.12" y2="193.25"/><line class="cls-2" x1="248.72" y1="193.25" x2="255.8" y2="193.25"/><line class="cls-2" x1="228.23" y1="209.16" x2="231.77" y2="203.04"/><line class="cls-2" x1="243.07" y1="183.46" x2="246.61" y2="177.34"/><line class="cls-2" x1="100.4" y1="212.64" x2="100.4" y2="226.72"/><line class="cls-2" x1="100.4" y1="239.33" x2="100.4" y2="253.4"/><line class="cls-2" x1="82.76" y1="222.83" x2="94.94" y2="229.87"/><line class="cls-2" x1="105.86" y1="236.17" x2="118.05" y2="243.21"/><line class="cls-2" x1="82.76" y1="243.21" x2="94.94" y2="236.17"/><line class="cls-2" x1="105.86" y1="229.87" x2="118.05" y2="222.83"/><line class="cls-2" x1="91.22" y1="217.11" x2="94.75" y2="223.23"/><line class="cls-2" x1="106.06" y1="242.81" x2="109.59" y2="248.94"/><line class="cls-2" x1="82.03" y1="233.02" x2="89.1" y2="233.02"/><line class="cls-2" x1="111.71" y1="233.02" x2="118.78" y2="233.02"/><line class="cls-2" x1="91.22" y1="248.94" x2="94.75" y2="242.81"/><line class="cls-2" x1="106.06" y1="223.23" x2="109.59" y2="217.11"/></svg>