<?xml version="1.0" encoding="UTF-8" standalone="no"?><!DOCTYPE svg PUBLIC "-//W3C//DTD SVG 1.1//EN" "http://www.w3.org/Graphics/SVG/1.1/DTD/svg11.dtd"><svg width="100%" height="100%" viewBox="0 0 368 124" version="1.1" xmlns="http://www.w3.org/2000/svg" xmlns:xlink="http://www.w3.org/1999/xlink" xml:space="preserve" xmlns:serif="http://www.serif.com/" style="fill-rule:evenodd;clip-rule:evenodd;stroke-linecap:round;stroke-linejoin:round;stroke-miterlimit:1.5;"><rect id="next-book" x="0" y="0" width="368" height="124" style="fill:none;"/><g><path d="M82.822,107.786l-81.295,0l0,-81.294l81.295,0l0,81.294Zm-80.995,-80.994l0,80.694l80.695,0l0,-80.694l-80.695,0Z"/><path d="M259.604,107.786l-81.294,0l0,-81.294l81.294,0l0,81.294Zm-80.994,-80.994l0,80.694l80.694,0l0,-80.694l-80.694,0Z"/><path d="M95.725,82.72l0,-34.852l48.699,0l0,-8.174l21.463,25.6l-21.463,25.6l0,-8.174l-48.699,0Z" style="fill:#f7c9c8;"/><path d="M165.887,65.294l-21.463,25.6l0,-8.174l-48.699,0l0,-34.852l48.699,0l0,-8.174l21.463,25.6Zm-21.163,-17.426l-0.01,0.078l-0.03,0.072l-0.048,0.062l-0.062,0.048l-0.072,0.03l-0.078,0.01l-48.399,0l0,34.252l48.399,0l0.078,0.01l0.072,0.03l0.062,0.048l0.048,0.062l0.03,0.072l0.01,0.078l0,7.35l20.772,-24.776l-20.772,-24.775l0,7.349Z"/><text x="1.527px" y="21.32px" style="font-family:'ArialMT', 'Arial', sans-serif;font-size:10.323px;">source</text><text x="178.31px" y="21.32px" style="font-family:'ArialMT', 'Arial', sans-serif;font-size:10.323px;">book</text><g transform="matrix(1.29038,0,0,1.29038,146.05,-85.7717)"><text x="27px" y="100.992px" style="font-family:'ArialMT', 'Arial', sans-serif;font-size:8px;">mapped html5</text><text x="27px" y="109.254px" style="font-family:'ArialMT', 'Arial', sans-serif;font-size:8px;">identiﬁers</text><text x="27px" y="117.516px" style="font-family:'ArialMT', 'Arial', sans-serif;font-size:8px;">reading UI</text><text x="27px" y="125.777px" style="font-family:'ArialMT', 'Arial', sans-serif;font-size:8px;">source bundle</text></g><g transform="matrix(1.29038,0,0,1.29038,-29.928,-85.7717)"><text x="27px" y="100.992px" style="font-family:'ArialMT', 'Arial', sans-serif;font-size:8px;">html5</text><text x="27px" y="109.254px" style="font-family:'ArialMT', 'Arial', sans-serif;font-size:8px;">metadata</text></g><text x="95.725px" y="44.547px" style="font-family:'ArialMT', 'Arial', sans-serif;font-size:10.323px;">generator</text><text x="98.306px" y="77.995px" style="font-family:'ArialMT', 'Arial', sans-serif;font-size:10.323px;">conﬁg</text></g><path d="M367,107.786l-81.294,0l0,-81.294l81.294,0l0,81.294Zm-80.994,-80.994l0,80.694l80.694,0l0,-80.694l-80.694,0Z"/><text x="285.706px" y="21.32px" style="font-family:'ArialMT', 'Arial', sans-serif;font-size:10.323px;">trace storage</text><g transform="matrix(1.29038,0,0,1.29038,253.833,-85.7717)"><text x="27px" y="100.992px" style="font-family:'ArialMT', 'Arial', sans-serif;font-size:8px;">position</text><text x="27px" y="109.254px" style="font-family:'ArialMT', 'Arial', sans-serif;font-size:8px;">annotations</text><text x="27px" y="117.516px" style="font-family:'ArialMT', 'Arial', sans-serif;font-size:8px;">modiﬁcations</text><text x="27px" y="125.777px" style="font-family:'ArialMT', 'Arial', sans-serif;font-size:8px;">reading trace</text></g><path d="M272.508,3.265l0,117.47" style="fill:none;stroke:#000;stroke-width:0.3px;stroke-dasharray:0.6,1.5,0,0;"/></svg>