<?xml version="1.0" encoding="UTF-8" standalone="no"?><!DOCTYPE svg PUBLIC "-//W3C//DTD SVG 1.1//EN" "http://www.w3.org/Graphics/SVG/1.1/DTD/svg11.dtd"><svg width="100%" height="100%" viewBox="0 0 696 292" version="1.1" xmlns="http://www.w3.org/2000/svg" xmlns:xlink="http://www.w3.org/1999/xlink" xml:space="preserve" xmlns:serif="http://www.serif.com/" style="fill-rule:evenodd;clip-rule:evenodd;stroke-linecap:round;stroke-linejoin:round;stroke-miterlimit:1.5;"><rect id="combinations" x="0" y="0" width="696" height="292" style="fill:none;"/><g><g><g transform="matrix(0.652174,0,0,0.557047,-340.647,58.3238)"><rect x="562" y="174" width="207" height="149" style="fill:none;stroke:#000;stroke-width:1.65px;"/><g transform="matrix(1.53333,0,0,1.79518,-299.733,-138.361)"><g transform="matrix(12,0,0,12,595.565,220.419)"><path d="M0.058,-0.159l0,0.128c0.034,0.015 0.117,0.042 0.192,0.042c0.135,0 0.215,-0.066 0.215,-0.164c0,-0.101 -0.083,-0.14 -0.171,-0.179c-0.066,-0.028 -0.129,-0.047 -0.129,-0.112c0,-0.04 0.033,-0.07 0.096,-0.069c0.042,0 0.078,0.015 0.086,0.032l0.021,0.068l0.063,0l0,-0.124c-0.026,-0.006 -0.081,-0.03 -0.166,-0.03c-0.117,0 -0.204,0.058 -0.204,0.148c0,0.089 0.048,0.139 0.149,0.178c0.099,0.039 0.148,0.068 0.148,0.119c0,0.044 -0.024,0.078 -0.102,0.078c-0.049,0 -0.098,-0.02 -0.11,-0.04l-0.019,-0.075l-0.069,0l0,0Z" style="fill-rule:nonzero;"/></g><g transform="matrix(12,0,0,12,601.677,220.419)"><path d="M0.071,0.242c0.01,0.004 0.037,0.007 0.057,0.007c0.116,0 0.165,-0.079 0.226,-0.232c0.016,-0.035 0.073,-0.202 0.171,-0.508l0.05,-0.012l0,-0.052l-0.205,0l0,0.052l0.066,0.012l-0.089,0.295l-0.039,0.142l-0.043,-0.142l-0.095,-0.295l0.077,-0.012l0,-0.052l-0.248,0l0,0.052l0.046,0.012l0.183,0.491l0.055,0c-0.051,0.137 -0.103,0.158 -0.154,0.158c-0.02,0 -0.049,-0.004 -0.058,-0.009l0,0.093l0,0Z" style="fill-rule:nonzero;"/></g><g transform="matrix(12,0,0,12,608.591,220.419)"><path d="M0.05,-0.053l0,0.053l0.243,0l0,-0.053l-0.067,-0.009l0,-0.378c0.035,-0.027 0.09,-0.052 0.14,-0.052c0.083,0 0.098,0.049 0.098,0.154l0,0.276l-0.063,0.009l0,0.053l0.245,0l0,-0.053l-0.07,-0.009l0,-0.275c0,-0.162 -0.032,-0.231 -0.16,-0.231c-0.073,0 -0.16,0.042 -0.203,0.081l0.001,-0.023l0,-0.039l-0.023,-0.019l-0.003,0l-0.144,0.019l0,0.059l0.07,0.019l0,0.409l-0.064,0.009l0,0Z" style="fill-rule:nonzero;"/></g><g transform="matrix(12,0,0,12,616.647,220.419)"><path d="M0.319,-0.57c-0.186,0 -0.282,0.137 -0.281,0.301c0.001,0.159 0.085,0.28 0.253,0.28c0.077,0 0.153,-0.038 0.186,-0.073l-0.021,-0.045c-0.029,0.021 -0.078,0.043 -0.14,0.043c-0.087,0 -0.16,-0.072 -0.159,-0.241c0,-0.139 0.057,-0.208 0.141,-0.208c0.036,0 0.067,0.01 0.076,0.032l0.022,0.091l0.068,0l0.005,-0.15c-0.026,-0.01 -0.083,-0.03 -0.15,-0.03l0,0Z" style="fill-rule:nonzero;"/></g><g transform="matrix(12,0,0,12,626.392,220.419)"><path d="M0.058,-0.159l0,0.128c0.034,0.015 0.117,0.042 0.192,0.042c0.135,0 0.215,-0.066 0.215,-0.164c0,-0.101 -0.083,-0.14 -0.171,-0.179c-0.066,-0.028 -0.129,-0.047 -0.129,-0.112c0,-0.04 0.033,-0.07 0.096,-0.069c0.042,0 0.078,0.015 0.086,0.032l0.021,0.068l0.063,0l0,-0.124c-0.026,-0.006 -0.081,-0.03 -0.166,-0.03c-0.117,0 -0.204,0.058 -0.204,0.148c0,0.089 0.048,0.139 0.149,0.178c0.099,0.039 0.148,0.068 0.148,0.119c0,0.044 -0.024,0.078 -0.102,0.078c-0.049,0 -0.098,-0.02 -0.11,-0.04l-0.019,-0.075l-0.069,0l0,0Z" style="fill-rule:nonzero;"/></g><g transform="matrix(12,0,0,12,632.503,220.419)"><path d="M0.041,-0.279c0,0.171 0.083,0.29 0.251,0.29c0.082,0 0.166,-0.036 0.202,-0.074l-0.02,-0.047c-0.03,0.023 -0.093,0.046 -0.149,0.046c-0.088,0 -0.161,-0.062 -0.166,-0.211l0.339,0c0.005,-0.024 0.006,-0.055 0.005,-0.096c-0.004,-0.129 -0.075,-0.199 -0.199,-0.199c-0.153,0 -0.262,0.116 -0.262,0.291l-0.001,0Zm0.118,-0.053c0.007,-0.138 0.056,-0.179 0.123,-0.179c0.078,0 0.106,0.061 0.106,0.137c0,0.012 0,0.029 -0.002,0.042l-0.227,0l0,0Z" style="fill-rule:nonzero;"/></g><g transform="matrix(12,0,0,12,639.019,220.419)"><path d="M0.045,-0.053l0,0.053l0.317,0l0,-0.052l-0.129,-0.009l0,-0.355c0.027,-0.02 0.073,-0.042 0.145,-0.042c0.026,0 0.047,0.007 0.058,0.013l0,-0.12c-0.007,-0.003 -0.018,-0.005 -0.032,-0.005c-0.105,0 -0.175,0.095 -0.186,0.115l-0.001,0l0.001,-0.064l0,-0.03l-0.023,-0.019l-0.003,0l-0.139,0.019l0,0.059l0.069,0.019l0,0.41l-0.077,0.008l0,0Z" style="fill-rule:nonzero;"/></g><g transform="matrix(12,0,0,12,644.544,220.419)"><path d="M0.044,-0.491l0.201,0.499l0.091,0l0.189,-0.498l0.051,-0.013l0,-0.052l-0.207,0l0,0.052l0.068,0.012l-0.093,0.281l-0.036,0.127l-0.043,-0.132l-0.096,-0.276l0.074,-0.012l0,-0.052l-0.244,0l0,0.052l0.045,0.012l0,0Z" style="fill-rule:nonzero;"/></g><g transform="matrix(12,0,0,12,651.394,220.419)"><path d="M0.041,-0.279c0,0.171 0.083,0.29 0.251,0.29c0.082,0 0.166,-0.036 0.202,-0.074l-0.02,-0.047c-0.03,0.023 -0.093,0.046 -0.149,0.046c-0.088,0 -0.161,-0.062 -0.166,-0.211l0.339,0c0.005,-0.024 0.006,-0.055 0.005,-0.096c-0.004,-0.129 -0.075,-0.199 -0.199,-0.199c-0.153,0 -0.262,0.116 -0.262,0.291l-0.001,0Zm0.118,-0.053c0.007,-0.138 0.056,-0.179 0.123,-0.179c0.078,0 0.106,0.061 0.106,0.137c0,0.012 0,0.029 -0.002,0.042l-0.227,0l0,0Z" style="fill-rule:nonzero;"/></g><g transform="matrix(12,0,0,12,657.909,220.419)"><path d="M0.045,-0.053l0,0.053l0.317,0l0,-0.052l-0.129,-0.009l0,-0.355c0.027,-0.02 0.073,-0.042 0.145,-0.042c0.026,0 0.047,0.007 0.058,0.013l0,-0.12c-0.007,-0.003 -0.018,-0.005 -0.032,-0.005c-0.105,0 -0.175,0.095 -0.186,0.115l-0.001,0l0.001,-0.064l0,-0.03l-0.023,-0.019l-0.003,0l-0.139,0.019l0,0.059l0.069,0.019l0,0.41l-0.077,0.008l0,0Z" style="fill-rule:nonzero;"/></g></g></g><g transform="matrix(0.710145,0,0,1.1443,-379.226,-125.357)"><rect x="562" y="174" width="207" height="149" style="fill:none;stroke:#000;stroke-width:1.05px;"/><g transform="matrix(1.40816,0,0,0.8739,-229.388,21.9413)"><g transform="matrix(12,0,0,12,567,195.838)"><path d="M0.078,-0.743l0,0.716c0.013,0.012 0.095,0.038 0.197,0.038c0.18,0 0.289,-0.137 0.289,-0.308c0,-0.194 -0.104,-0.273 -0.217,-0.273c-0.072,0 -0.125,0.033 -0.158,0.065l0,-0.298l-0.024,-0.017l-0.003,0l-0.164,0.021l0,0.046l0.08,0.01Zm0.111,0.3c0.019,-0.022 0.061,-0.052 0.113,-0.052c0.081,0 0.144,0.066 0.142,0.214c-0.002,0.159 -0.069,0.236 -0.161,0.236c-0.045,0 -0.085,-0.011 -0.094,-0.032l0,-0.366l0,0Z" style="fill-rule:nonzero;"/></g><g transform="matrix(12,0,0,12,574.271,195.838)"><path d="M0.303,-0.57c-0.133,0 -0.264,0.104 -0.264,0.29c0,0.164 0.077,0.291 0.252,0.291c0.134,0 0.265,-0.102 0.265,-0.29c0,-0.164 -0.077,-0.291 -0.253,-0.291l0,0Zm0.13,0.299c0,0.148 -0.046,0.222 -0.136,0.222c-0.097,0 -0.135,-0.102 -0.135,-0.24c0,-0.148 0.046,-0.221 0.135,-0.221c0.099,0 0.136,0.103 0.136,0.239l0,0Z" style="fill-rule:nonzero;"/></g><g transform="matrix(12,0,0,12,581.408,195.838)"><path d="M0.303,-0.57c-0.133,0 -0.264,0.104 -0.264,0.29c0,0.164 0.077,0.291 0.252,0.291c0.134,0 0.265,-0.102 0.265,-0.29c0,-0.164 -0.077,-0.291 -0.253,-0.291l0,0Zm0.13,0.299c0,0.148 -0.046,0.222 -0.136,0.222c-0.097,0 -0.135,-0.102 -0.135,-0.24c0,-0.148 0.046,-0.221 0.135,-0.221c0.099,0 0.136,0.103 0.136,0.239l0,0Z" style="fill-rule:nonzero;"/></g><g transform="matrix(12,0,0,12,588.545,195.838)"><path d="M0.038,-0.053l0,0.053l0.245,0l0,-0.053l-0.07,-0.009l0,-0.077l-0.003,-0.051l0.096,-0.095l0.138,0.223l-0.059,0.009l0,0.053l0.245,0l0,-0.053l-0.059,-0.009l-0.191,-0.288l0.142,-0.139l0.077,-0.016l0,-0.05l-0.249,0l0,0.05l0.079,0.014l-0.218,0.227l0.002,-0.056l0,-0.483l-0.024,-0.017l-0.001,0l-0.163,0.021l0,0.047l0.077,0.009l0,0.681l-0.064,0.009l0,0Z" style="fill-rule:nonzero;"/></g><g transform="matrix(12,0,0,12,599.432,195.838)"><path d="M0.058,-0.159l0,0.128c0.034,0.015 0.117,0.042 0.192,0.042c0.135,0 0.215,-0.066 0.215,-0.164c0,-0.101 -0.083,-0.14 -0.171,-0.179c-0.066,-0.028 -0.129,-0.047 -0.129,-0.112c0,-0.04 0.033,-0.07 0.096,-0.069c0.042,0 0.078,0.015 0.086,0.032l0.021,0.068l0.063,0l0,-0.124c-0.026,-0.006 -0.081,-0.03 -0.166,-0.03c-0.117,0 -0.204,0.058 -0.204,0.148c0,0.089 0.048,0.139 0.149,0.178c0.099,0.039 0.148,0.068 0.148,0.119c0,0.044 -0.024,0.078 -0.102,0.078c-0.049,0 -0.098,-0.02 -0.11,-0.04l-0.019,-0.075l-0.069,0l0,0Z" style="fill-rule:nonzero;"/></g><g transform="matrix(12,0,0,12,605.543,195.838)"><path d="M0.303,-0.57c-0.133,0 -0.264,0.104 -0.264,0.29c0,0.164 0.077,0.291 0.252,0.291c0.134,0 0.265,-0.102 0.265,-0.29c0,-0.164 -0.077,-0.291 -0.253,-0.291l0,0Zm0.13,0.299c0,0.148 -0.046,0.222 -0.136,0.222c-0.097,0 -0.135,-0.102 -0.135,-0.24c0,-0.148 0.046,-0.221 0.135,-0.221c0.099,0 0.136,0.103 0.136,0.239l0,0Z" style="fill-rule:nonzero;"/></g><g transform="matrix(12,0,0,12,612.68,195.838)"><path d="M0.443,-0.041c0,0.039 0.021,0.052 0.061,0.052c0.041,0 0.074,-0.011 0.097,-0.017l0,-0.049l-0.059,0l0,-0.5l-0.025,-0.013l-0.001,0l-0.155,0.014l0,0.048l0.07,0.019l0,0.376c-0.024,0.019 -0.07,0.048 -0.127,0.048c-0.079,0 -0.098,-0.04 -0.098,-0.147l0,-0.345l-0.021,-0.013l0,0l-0.145,0.015l0,0.047l0.054,0.018l0,0.283c0,0.156 0.053,0.216 0.174,0.216c0.07,0 0.14,-0.043 0.175,-0.077l0,0.025Z" style="fill-rule:nonzero;"/></g><g transform="matrix(12,0,0,12,620.338,195.838)"><path d="M0.045,-0.053l0,0.053l0.317,0l0,-0.052l-0.129,-0.009l0,-0.355c0.027,-0.02 0.073,-0.042 0.145,-0.042c0.026,0 0.047,0.007 0.058,0.013l0,-0.12c-0.007,-0.003 -0.018,-0.005 -0.032,-0.005c-0.105,0 -0.175,0.095 -0.186,0.115l-0.001,0l0.001,-0.064l0,-0.03l-0.023,-0.019l-0.003,0l-0.139,0.019l0,0.059l0.069,0.019l0,0.41l-0.077,0.008l0,0Z" style="fill-rule:nonzero;"/></g><g transform="matrix(12,0,0,12,625.863,195.838)"><path d="M0.319,-0.57c-0.186,0 -0.282,0.137 -0.281,0.301c0.001,0.159 0.085,0.28 0.253,0.28c0.077,0 0.153,-0.038 0.186,-0.073l-0.021,-0.045c-0.029,0.021 -0.078,0.043 -0.14,0.043c-0.087,0 -0.16,-0.072 -0.159,-0.241c0,-0.139 0.057,-0.208 0.141,-0.208c0.036,0 0.067,0.01 0.076,0.032l0.022,0.091l0.068,0l0.005,-0.15c-0.026,-0.01 -0.083,-0.03 -0.15,-0.03l0,0Z" style="fill-rule:nonzero;"/></g><g transform="matrix(12,0,0,12,631.998,195.838)"><path d="M0.041,-0.279c0,0.171 0.083,0.29 0.251,0.29c0.082,0 0.166,-0.036 0.202,-0.074l-0.02,-0.047c-0.03,0.023 -0.093,0.046 -0.149,0.046c-0.088,0 -0.161,-0.062 -0.166,-0.211l0.339,0c0.005,-0.024 0.006,-0.055 0.005,-0.096c-0.004,-0.129 -0.075,-0.199 -0.199,-0.199c-0.153,0 -0.262,0.116 -0.262,0.291l-0.001,0Zm0.118,-0.053c0.007,-0.138 0.056,-0.179 0.123,-0.179c0.078,0 0.106,0.061 0.106,0.137c0,0.012 0,0.029 -0.002,0.042l-0.227,0l0,0Z" style="fill-rule:nonzero;"/></g><g transform="matrix(12,0,0,12,567,219.838)"><path d="M0.313,-0.829c-0.052,0.03 -0.247,0.203 -0.247,0.495c0,0.337 0.203,0.491 0.247,0.518l0.05,-0.034c-0.049,-0.034 -0.199,-0.203 -0.192,-0.504c0.007,-0.27 0.146,-0.417 0.188,-0.443l-0.046,-0.032l0,0Z" style="fill-rule:nonzero;"/></g><g transform="matrix(12,0,0,12,572.156,219.838)"><path d="M0.045,-0.053l0,0.053l0.317,0l0,-0.052l-0.129,-0.009l0,-0.355c0.027,-0.02 0.073,-0.042 0.145,-0.042c0.026,0 0.047,0.007 0.058,0.013l0,-0.12c-0.007,-0.003 -0.018,-0.005 -0.032,-0.005c-0.105,0 -0.175,0.095 -0.186,0.115l-0.001,0l0.001,-0.064l0,-0.03l-0.023,-0.019l-0.003,0l-0.139,0.019l0,0.059l0.069,0.019l0,0.41l-0.077,0.008l0,0Z" style="fill-rule:nonzero;"/></g><g transform="matrix(12,0,0,12,577.682,219.838)"><path d="M0.041,-0.279c0,0.171 0.083,0.29 0.251,0.29c0.082,0 0.166,-0.036 0.202,-0.074l-0.02,-0.047c-0.03,0.023 -0.093,0.046 -0.149,0.046c-0.088,0 -0.161,-0.062 -0.166,-0.211l0.339,0c0.005,-0.024 0.006,-0.055 0.005,-0.096c-0.004,-0.129 -0.075,-0.199 -0.199,-0.199c-0.153,0 -0.262,0.116 -0.262,0.291l-0.001,0Zm0.118,-0.053c0.007,-0.138 0.056,-0.179 0.123,-0.179c0.078,0 0.106,0.061 0.106,0.137c0,0.012 0,0.029 -0.002,0.042l-0.227,0l0,0Z" style="fill-rule:nonzero;"/></g><g transform="matrix(12,0,0,12,584.197,219.838)"><path d="M0.103,-0.485l0,0.38c0,0.086 0.044,0.116 0.122,0.116l0.001,0c0.058,-0.001 0.139,-0.03 0.169,-0.054l-0.017,-0.047l-0.001,0c-0.02,0.007 -0.069,0.019 -0.107,0.019l0,0c-0.051,0 -0.056,-0.007 -0.056,-0.119l0,-0.295l0.164,0l0,-0.07l-0.164,0l-0.001,-0.142l-0.064,0c-0.005,0.022 -0.024,0.084 -0.035,0.108c-0.008,0.018 -0.016,0.03 -0.027,0.038c-0.007,0.005 -0.038,0.015 -0.054,0.019l0,0.047l0.07,0l0,0Z" style="fill-rule:nonzero;"/></g><g transform="matrix(12,0,0,12,589.084,219.838)"><path d="M0.369,-0.337c-0.168,0.003 -0.327,0.053 -0.327,0.19c0,0.11 0.078,0.158 0.168,0.158c0.082,0 0.145,-0.052 0.166,-0.073l0,0.023c0,0.045 0.015,0.05 0.052,0.05c0.035,0 0.083,-0.011 0.108,-0.017l0,-0.048l-0.06,0l0,-0.317c0,-0.142 -0.048,-0.196 -0.189,-0.196c-0.094,0 -0.203,0.056 -0.226,0.077l0.024,0.051l0.001,0c0.036,-0.019 0.101,-0.047 0.174,-0.047c0.086,0 0.109,0.035 0.109,0.123l0,0.026l0,0Zm0,0.23c-0.033,0.025 -0.082,0.044 -0.112,0.044c-0.054,0 -0.094,-0.027 -0.094,-0.099c0,-0.064 0.055,-0.12 0.206,-0.12l0,0.175l0,0Z" style="fill-rule:nonzero;"/></g><g transform="matrix(12,0,0,12,595.811,219.838)"><path d="M0.097,-0.727c0,0.038 0.026,0.067 0.064,0.067l0.001,0c0.051,0 0.076,-0.035 0.076,-0.078c0,-0.035 -0.024,-0.068 -0.067,-0.068l-0.001,0c-0.048,0 -0.073,0.037 -0.073,0.079l0,0Zm-0.059,0.674l0,0.053l0.269,0l0,-0.053l-0.078,-0.009l0,-0.487l-0.025,-0.019l-0.002,0l-0.156,0.02l0,0.057l0.071,0.02l0,0.409l-0.079,0.009l0,0Z" style="fill-rule:nonzero;"/></g><g transform="matrix(12,0,0,12,599.824,219.838)"><path d="M0.036,-0.053l0,0.053l0.273,0l0,-0.053l-0.083,-0.009l0,-0.741l-0.024,-0.017l-0.001,0l-0.166,0.021l0,0.047l0.08,0.009l0,0.681l-0.079,0.009l0,0Z" style="fill-rule:nonzero;"/></g><g transform="matrix(12,0,0,12,603.855,219.838)"><path d="M0.041,-0.279c0,0.171 0.083,0.29 0.251,0.29c0.082,0 0.166,-0.036 0.202,-0.074l-0.02,-0.047c-0.03,0.023 -0.093,0.046 -0.149,0.046c-0.088,0 -0.161,-0.062 -0.166,-0.211l0.339,0c0.005,-0.024 0.006,-0.055 0.005,-0.096c-0.004,-0.129 -0.075,-0.199 -0.199,-0.199c-0.153,0 -0.262,0.116 -0.262,0.291l-0.001,0Zm0.118,-0.053c0.007,-0.138 0.056,-0.179 0.123,-0.179c0.078,0 0.106,0.061 0.106,0.137c0,0.012 0,0.029 -0.002,0.042l-0.227,0l0,0Z" style="fill-rule:nonzero;"/></g><g transform="matrix(12,0,0,12,610.371,219.838)"><path d="M0.045,-0.053l0,0.053l0.317,0l0,-0.052l-0.129,-0.009l0,-0.355c0.027,-0.02 0.073,-0.042 0.145,-0.042c0.026,0 0.047,0.007 0.058,0.013l0,-0.12c-0.007,-0.003 -0.018,-0.005 -0.032,-0.005c-0.105,0 -0.175,0.095 -0.186,0.115l-0.001,0l0.001,-0.064l0,-0.03l-0.023,-0.019l-0.003,0l-0.139,0.019l0,0.059l0.069,0.019l0,0.41l-0.077,0.008l0,0Z" style="fill-rule:nonzero;"/></g><g transform="matrix(12,0,0,12,615.896,219.838)"><path d="M0.174,-0.148l-0.006,0c-0.034,0 -0.064,0.025 -0.064,0.066c0,0.066 0.057,0.059 0.057,0.13c0,0.073 -0.038,0.114 -0.062,0.134l0,0.011l0.033,0.027l0.001,0c0.054,-0.028 0.121,-0.128 0.121,-0.244c0,-0.078 -0.031,-0.124 -0.08,-0.124l0,0Z" style="fill-rule:nonzero;"/></g><g transform="matrix(12,0,0,12,623.531,219.838)"><path d="M0.036,-0.053l0,0.053l0.273,0l0,-0.053l-0.083,-0.009l0,-0.741l-0.024,-0.017l-0.001,0l-0.166,0.021l0,0.047l0.08,0.009l0,0.681l-0.079,0.009l0,0Z" style="fill-rule:nonzero;"/></g><g transform="matrix(12,0,0,12,627.562,219.838)"><path d="M0.097,-0.727c0,0.038 0.026,0.067 0.064,0.067l0.001,0c0.051,0 0.076,-0.035 0.076,-0.078c0,-0.035 -0.024,-0.068 -0.067,-0.068l-0.001,0c-0.048,0 -0.073,0.037 -0.073,0.079l0,0Zm-0.059,0.674l0,0.053l0.269,0l0,-0.053l-0.078,-0.009l0,-0.487l-0.025,-0.019l-0.002,0l-0.156,0.02l0,0.057l0.071,0.02l0,0.409l-0.079,0.009l0,0Z" style="fill-rule:nonzero;"/></g><g transform="matrix(12,0,0,12,631.576,219.838)"><path d="M0.078,-0.743l0,0.716c0.013,0.012 0.095,0.038 0.197,0.038c0.18,0 0.289,-0.137 0.289,-0.308c0,-0.194 -0.104,-0.273 -0.217,-0.273c-0.072,0 -0.125,0.033 -0.158,0.065l0,-0.298l-0.024,-0.017l-0.003,0l-0.164,0.021l0,0.046l0.08,0.01Zm0.111,0.3c0.019,-0.022 0.061,-0.052 0.113,-0.052c0.081,0 0.144,0.066 0.142,0.214c-0.002,0.159 -0.069,0.236 -0.161,0.236c-0.045,0 -0.085,-0.011 -0.094,-0.032l0,-0.366l0,0Z" style="fill-rule:nonzero;"/></g><g transform="matrix(12,0,0,12,638.848,219.838)"><path d="M0.045,-0.053l0,0.053l0.317,0l0,-0.052l-0.129,-0.009l0,-0.355c0.027,-0.02 0.073,-0.042 0.145,-0.042c0.026,0 0.047,0.007 0.058,0.013l0,-0.12c-0.007,-0.003 -0.018,-0.005 -0.032,-0.005c-0.105,0 -0.175,0.095 -0.186,0.115l-0.001,0l0.001,-0.064l0,-0.03l-0.023,-0.019l-0.003,0l-0.139,0.019l0,0.059l0.069,0.019l0,0.41l-0.077,0.008l0,0Z" style="fill-rule:nonzero;"/></g><g transform="matrix(12,0,0,12,644.373,219.838)"><path d="M0.369,-0.337c-0.168,0.003 -0.327,0.053 -0.327,0.19c0,0.11 0.078,0.158 0.168,0.158c0.082,0 0.145,-0.052 0.166,-0.073l0,0.023c0,0.045 0.015,0.05 0.052,0.05c0.035,0 0.083,-0.011 0.108,-0.017l0,-0.048l-0.06,0l0,-0.317c0,-0.142 -0.048,-0.196 -0.189,-0.196c-0.094,0 -0.203,0.056 -0.226,0.077l0.024,0.051l0.001,0c0.036,-0.019 0.101,-0.047 0.174,-0.047c0.086,0 0.109,0.035 0.109,0.123l0,0.026l0,0Zm0,0.23c-0.033,0.025 -0.082,0.044 -0.112,0.044c-0.054,0 -0.094,-0.027 -0.094,-0.099c0,-0.064 0.055,-0.12 0.206,-0.12l0,0.175l0,0Z" style="fill-rule:nonzero;"/></g><g transform="matrix(12,0,0,12,651.1,219.838)"><path d="M0.045,-0.053l0,0.053l0.317,0l0,-0.052l-0.129,-0.009l0,-0.355c0.027,-0.02 0.073,-0.042 0.145,-0.042c0.026,0 0.047,0.007 0.058,0.013l0,-0.12c-0.007,-0.003 -0.018,-0.005 -0.032,-0.005c-0.105,0 -0.175,0.095 -0.186,0.115l-0.001,0l0.001,-0.064l0,-0.03l-0.023,-0.019l-0.003,0l-0.139,0.019l0,0.059l0.069,0.019l0,0.41l-0.077,0.008l0,0Z" style="fill-rule:nonzero;"/></g><g transform="matrix(12,0,0,12,656.625,219.838)"><path d="M0.071,0.242c0.01,0.004 0.037,0.007 0.057,0.007c0.116,0 0.165,-0.079 0.226,-0.232c0.016,-0.035 0.073,-0.202 0.171,-0.508l0.05,-0.012l0,-0.052l-0.205,0l0,0.052l0.066,0.012l-0.089,0.295l-0.039,0.142l-0.043,-0.142l-0.095,-0.295l0.077,-0.012l0,-0.052l-0.248,0l0,0.052l0.046,0.012l0.183,0.491l0.055,0c-0.051,0.137 -0.103,0.158 -0.154,0.158c-0.02,0 -0.049,-0.004 -0.058,-0.009l0,0.093l0,0Z" style="fill-rule:nonzero;"/></g><g transform="matrix(12,0,0,12,667.148,219.838)"><path d="M0.041,-0.279c0,0.171 0.083,0.29 0.251,0.29c0.082,0 0.166,-0.036 0.202,-0.074l-0.02,-0.047c-0.03,0.023 -0.093,0.046 -0.149,0.046c-0.088,0 -0.161,-0.062 -0.166,-0.211l0.339,0c0.005,-0.024 0.006,-0.055 0.005,-0.096c-0.004,-0.129 -0.075,-0.199 -0.199,-0.199c-0.153,0 -0.262,0.116 -0.262,0.291l-0.001,0Zm0.118,-0.053c0.007,-0.138 0.056,-0.179 0.123,-0.179c0.078,0 0.106,0.061 0.106,0.137c0,0.012 0,0.029 -0.002,0.042l-0.227,0l0,0Z" style="fill-rule:nonzero;"/></g><g transform="matrix(12,0,0,12,673.664,219.838)"><path d="M0.103,-0.485l0,0.38c0,0.086 0.044,0.116 0.122,0.116l0.001,0c0.058,-0.001 0.139,-0.03 0.169,-0.054l-0.017,-0.047l-0.001,0c-0.02,0.007 -0.069,0.019 -0.107,0.019l0,0c-0.051,0 -0.056,-0.007 -0.056,-0.119l0,-0.295l0.164,0l0,-0.07l-0.164,0l-0.001,-0.142l-0.064,0c-0.005,0.022 -0.024,0.084 -0.035,0.108c-0.008,0.018 -0.016,0.03 -0.027,0.038c-0.007,0.005 -0.038,0.015 -0.054,0.019l0,0.047l0.07,0l0,0Z" style="fill-rule:nonzero;"/></g><g transform="matrix(12,0,0,12,678.551,219.838)"><path d="M0.319,-0.57c-0.186,0 -0.282,0.137 -0.281,0.301c0.001,0.159 0.085,0.28 0.253,0.28c0.077,0 0.153,-0.038 0.186,-0.073l-0.021,-0.045c-0.029,0.021 -0.078,0.043 -0.14,0.043c-0.087,0 -0.16,-0.072 -0.159,-0.241c0,-0.139 0.057,-0.208 0.141,-0.208c0.036,0 0.067,0.01 0.076,0.032l0.022,0.091l0.068,0l0.005,-0.15c-0.026,-0.01 -0.083,-0.03 -0.15,-0.03l0,0Z" style="fill-rule:nonzero;"/></g><g transform="matrix(12,0,0,12,684.686,219.838)"><path d="M0.116,0.184c0.052,-0.03 0.247,-0.202 0.247,-0.494c0,-0.338 -0.203,-0.492 -0.247,-0.519l-0.05,0.034c0.049,0.035 0.199,0.204 0.192,0.504c-0.007,0.271 -0.146,0.417 -0.188,0.444l0.046,0.031Z" style="fill-rule:nonzero;"/></g></g></g></g><g><g transform="matrix(0.652174,0,0,0.557047,-170.897,84.3238)"><rect x="562" y="174" width="207" height="149" style="fill:none;stroke:#000;stroke-width:1.65px;"/><g transform="matrix(1.53333,0,0,1.79518,-299.733,-138.361)"><g transform="matrix(12,0,0,12,595.565,220.419)"><path d="M0.058,-0.159l0,0.128c0.034,0.015 0.117,0.042 0.192,0.042c0.135,0 0.215,-0.066 0.215,-0.164c0,-0.101 -0.083,-0.14 -0.171,-0.179c-0.066,-0.028 -0.129,-0.047 -0.129,-0.112c0,-0.04 0.033,-0.07 0.096,-0.069c0.042,0 0.078,0.015 0.086,0.032l0.021,0.068l0.063,0l0,-0.124c-0.026,-0.006 -0.081,-0.03 -0.166,-0.03c-0.117,0 -0.204,0.058 -0.204,0.148c0,0.089 0.048,0.139 0.149,0.178c0.099,0.039 0.148,0.068 0.148,0.119c0,0.044 -0.024,0.078 -0.102,0.078c-0.049,0 -0.098,-0.02 -0.11,-0.04l-0.019,-0.075l-0.069,0l0,0Z" style="fill-rule:nonzero;"/></g><g transform="matrix(12,0,0,12,601.677,220.419)"><path d="M0.071,0.242c0.01,0.004 0.037,0.007 0.057,0.007c0.116,0 0.165,-0.079 0.226,-0.232c0.016,-0.035 0.073,-0.202 0.171,-0.508l0.05,-0.012l0,-0.052l-0.205,0l0,0.052l0.066,0.012l-0.089,0.295l-0.039,0.142l-0.043,-0.142l-0.095,-0.295l0.077,-0.012l0,-0.052l-0.248,0l0,0.052l0.046,0.012l0.183,0.491l0.055,0c-0.051,0.137 -0.103,0.158 -0.154,0.158c-0.02,0 -0.049,-0.004 -0.058,-0.009l0,0.093l0,0Z" style="fill-rule:nonzero;"/></g><g transform="matrix(12,0,0,12,608.591,220.419)"><path d="M0.05,-0.053l0,0.053l0.243,0l0,-0.053l-0.067,-0.009l0,-0.378c0.035,-0.027 0.09,-0.052 0.14,-0.052c0.083,0 0.098,0.049 0.098,0.154l0,0.276l-0.063,0.009l0,0.053l0.245,0l0,-0.053l-0.07,-0.009l0,-0.275c0,-0.162 -0.032,-0.231 -0.16,-0.231c-0.073,0 -0.16,0.042 -0.203,0.081l0.001,-0.023l0,-0.039l-0.023,-0.019l-0.003,0l-0.144,0.019l0,0.059l0.07,0.019l0,0.409l-0.064,0.009l0,0Z" style="fill-rule:nonzero;"/></g><g transform="matrix(12,0,0,12,616.647,220.419)"><path d="M0.319,-0.57c-0.186,0 -0.282,0.137 -0.281,0.301c0.001,0.159 0.085,0.28 0.253,0.28c0.077,0 0.153,-0.038 0.186,-0.073l-0.021,-0.045c-0.029,0.021 -0.078,0.043 -0.14,0.043c-0.087,0 -0.16,-0.072 -0.159,-0.241c0,-0.139 0.057,-0.208 0.141,-0.208c0.036,0 0.067,0.01 0.076,0.032l0.022,0.091l0.068,0l0.005,-0.15c-0.026,-0.01 -0.083,-0.03 -0.15,-0.03l0,0Z" style="fill-rule:nonzero;"/></g><g transform="matrix(12,0,0,12,626.392,220.419)"><path d="M0.058,-0.159l0,0.128c0.034,0.015 0.117,0.042 0.192,0.042c0.135,0 0.215,-0.066 0.215,-0.164c0,-0.101 -0.083,-0.14 -0.171,-0.179c-0.066,-0.028 -0.129,-0.047 -0.129,-0.112c0,-0.04 0.033,-0.07 0.096,-0.069c0.042,0 0.078,0.015 0.086,0.032l0.021,0.068l0.063,0l0,-0.124c-0.026,-0.006 -0.081,-0.03 -0.166,-0.03c-0.117,0 -0.204,0.058 -0.204,0.148c0,0.089 0.048,0.139 0.149,0.178c0.099,0.039 0.148,0.068 0.148,0.119c0,0.044 -0.024,0.078 -0.102,0.078c-0.049,0 -0.098,-0.02 -0.11,-0.04l-0.019,-0.075l-0.069,0l0,0Z" style="fill-rule:nonzero;"/></g><g transform="matrix(12,0,0,12,632.503,220.419)"><path d="M0.041,-0.279c0,0.171 0.083,0.29 0.251,0.29c0.082,0 0.166,-0.036 0.202,-0.074l-0.02,-0.047c-0.03,0.023 -0.093,0.046 -0.149,0.046c-0.088,0 -0.161,-0.062 -0.166,-0.211l0.339,0c0.005,-0.024 0.006,-0.055 0.005,-0.096c-0.004,-0.129 -0.075,-0.199 -0.199,-0.199c-0.153,0 -0.262,0.116 -0.262,0.291l-0.001,0Zm0.118,-0.053c0.007,-0.138 0.056,-0.179 0.123,-0.179c0.078,0 0.106,0.061 0.106,0.137c0,0.012 0,0.029 -0.002,0.042l-0.227,0l0,0Z" style="fill-rule:nonzero;"/></g><g transform="matrix(12,0,0,12,639.019,220.419)"><path d="M0.045,-0.053l0,0.053l0.317,0l0,-0.052l-0.129,-0.009l0,-0.355c0.027,-0.02 0.073,-0.042 0.145,-0.042c0.026,0 0.047,0.007 0.058,0.013l0,-0.12c-0.007,-0.003 -0.018,-0.005 -0.032,-0.005c-0.105,0 -0.175,0.095 -0.186,0.115l-0.001,0l0.001,-0.064l0,-0.03l-0.023,-0.019l-0.003,0l-0.139,0.019l0,0.059l0.069,0.019l0,0.41l-0.077,0.008l0,0Z" style="fill-rule:nonzero;"/></g><g transform="matrix(12,0,0,12,644.544,220.419)"><path d="M0.044,-0.491l0.201,0.499l0.091,0l0.189,-0.498l0.051,-0.013l0,-0.052l-0.207,0l0,0.052l0.068,0.012l-0.093,0.281l-0.036,0.127l-0.043,-0.132l-0.096,-0.276l0.074,-0.012l0,-0.052l-0.244,0l0,0.052l0.045,0.012l0,0Z" style="fill-rule:nonzero;"/></g><g transform="matrix(12,0,0,12,651.394,220.419)"><path d="M0.041,-0.279c0,0.171 0.083,0.29 0.251,0.29c0.082,0 0.166,-0.036 0.202,-0.074l-0.02,-0.047c-0.03,0.023 -0.093,0.046 -0.149,0.046c-0.088,0 -0.161,-0.062 -0.166,-0.211l0.339,0c0.005,-0.024 0.006,-0.055 0.005,-0.096c-0.004,-0.129 -0.075,-0.199 -0.199,-0.199c-0.153,0 -0.262,0.116 -0.262,0.291l-0.001,0Zm0.118,-0.053c0.007,-0.138 0.056,-0.179 0.123,-0.179c0.078,0 0.106,0.061 0.106,0.137c0,0.012 0,0.029 -0.002,0.042l-0.227,0l0,0Z" style="fill-rule:nonzero;"/></g><g transform="matrix(12,0,0,12,657.909,220.419)"><path d="M0.045,-0.053l0,0.053l0.317,0l0,-0.052l-0.129,-0.009l0,-0.355c0.027,-0.02 0.073,-0.042 0.145,-0.042c0.026,0 0.047,0.007 0.058,0.013l0,-0.12c-0.007,-0.003 -0.018,-0.005 -0.032,-0.005c-0.105,0 -0.175,0.095 -0.186,0.115l-0.001,0l0.001,-0.064l0,-0.03l-0.023,-0.019l-0.003,0l-0.139,0.019l0,0.059l0.069,0.019l0,0.41l-0.077,0.008l0,0Z" style="fill-rule:nonzero;"/></g></g></g><g transform="matrix(0.710145,0,0,1.1443,-209.476,-99.3574)"><rect x="562" y="174" width="207" height="149" style="fill:none;stroke:#000;stroke-width:1.05px;"/><g transform="matrix(1.40816,0,0,0.8739,-229.388,21.9413)"><g transform="matrix(12,0,0,12,567,195.838)"><path d="M0.078,-0.743l0,0.716c0.013,0.012 0.095,0.038 0.197,0.038c0.18,0 0.289,-0.137 0.289,-0.308c0,-0.194 -0.104,-0.273 -0.217,-0.273c-0.072,0 -0.125,0.033 -0.158,0.065l0,-0.298l-0.024,-0.017l-0.003,0l-0.164,0.021l0,0.046l0.08,0.01Zm0.111,0.3c0.019,-0.022 0.061,-0.052 0.113,-0.052c0.081,0 0.144,0.066 0.142,0.214c-0.002,0.159 -0.069,0.236 -0.161,0.236c-0.045,0 -0.085,-0.011 -0.094,-0.032l0,-0.366l0,0Z" style="fill-rule:nonzero;"/></g><g transform="matrix(12,0,0,12,574.271,195.838)"><path d="M0.303,-0.57c-0.133,0 -0.264,0.104 -0.264,0.29c0,0.164 0.077,0.291 0.252,0.291c0.134,0 0.265,-0.102 0.265,-0.29c0,-0.164 -0.077,-0.291 -0.253,-0.291l0,0Zm0.13,0.299c0,0.148 -0.046,0.222 -0.136,0.222c-0.097,0 -0.135,-0.102 -0.135,-0.24c0,-0.148 0.046,-0.221 0.135,-0.221c0.099,0 0.136,0.103 0.136,0.239l0,0Z" style="fill-rule:nonzero;"/></g><g transform="matrix(12,0,0,12,581.408,195.838)"><path d="M0.303,-0.57c-0.133,0 -0.264,0.104 -0.264,0.29c0,0.164 0.077,0.291 0.252,0.291c0.134,0 0.265,-0.102 0.265,-0.29c0,-0.164 -0.077,-0.291 -0.253,-0.291l0,0Zm0.13,0.299c0,0.148 -0.046,0.222 -0.136,0.222c-0.097,0 -0.135,-0.102 -0.135,-0.24c0,-0.148 0.046,-0.221 0.135,-0.221c0.099,0 0.136,0.103 0.136,0.239l0,0Z" style="fill-rule:nonzero;"/></g><g transform="matrix(12,0,0,12,588.545,195.838)"><path d="M0.038,-0.053l0,0.053l0.245,0l0,-0.053l-0.07,-0.009l0,-0.077l-0.003,-0.051l0.096,-0.095l0.138,0.223l-0.059,0.009l0,0.053l0.245,0l0,-0.053l-0.059,-0.009l-0.191,-0.288l0.142,-0.139l0.077,-0.016l0,-0.05l-0.249,0l0,0.05l0.079,0.014l-0.218,0.227l0.002,-0.056l0,-0.483l-0.024,-0.017l-0.001,0l-0.163,0.021l0,0.047l0.077,0.009l0,0.681l-0.064,0.009l0,0Z" style="fill-rule:nonzero;"/></g><g transform="matrix(12,0,0,12,595.822,195.838)"><path d="M0.058,-0.159l0,0.128c0.034,0.015 0.117,0.042 0.192,0.042c0.135,0 0.215,-0.066 0.215,-0.164c0,-0.101 -0.083,-0.14 -0.171,-0.179c-0.066,-0.028 -0.129,-0.047 -0.129,-0.112c0,-0.04 0.033,-0.07 0.096,-0.069c0.042,0 0.078,0.015 0.086,0.032l0.021,0.068l0.063,0l0,-0.124c-0.026,-0.006 -0.081,-0.03 -0.166,-0.03c-0.117,0 -0.204,0.058 -0.204,0.148c0,0.089 0.048,0.139 0.149,0.178c0.099,0.039 0.148,0.068 0.148,0.119c0,0.044 -0.024,0.078 -0.102,0.078c-0.049,0 -0.098,-0.02 -0.11,-0.04l-0.019,-0.075l-0.069,0l0,0Z" style="fill-rule:nonzero;"/></g><g transform="matrix(12,0,0,12,601.934,195.838)"><path d="M0.043,-0.053l0,0.053l0.24,0l0,-0.053l-0.069,-0.009l0,-0.379c0.037,-0.029 0.093,-0.051 0.141,-0.051c0.085,0 0.1,0.05 0.1,0.154l0,0.277l-0.064,0.008l0,0.053l0.246,0l0,-0.053l-0.071,-0.009l0,-0.275c0,-0.161 -0.033,-0.231 -0.16,-0.231c-0.084,0 -0.162,0.048 -0.197,0.079l0.004,-0.088l0,-0.226l-0.024,-0.017l-0.002,0l-0.166,0.021l0,0.047l0.081,0.009l0,0.682l-0.059,0.008l0,0Z" style="fill-rule:nonzero;"/></g><g transform="matrix(12,0,0,12,609.879,195.838)"><path d="M0.041,-0.279c0,0.171 0.083,0.29 0.251,0.29c0.082,0 0.166,-0.036 0.202,-0.074l-0.02,-0.047c-0.03,0.023 -0.093,0.046 -0.149,0.046c-0.088,0 -0.161,-0.062 -0.166,-0.211l0.339,0c0.005,-0.024 0.006,-0.055 0.005,-0.096c-0.004,-0.129 -0.075,-0.199 -0.199,-0.199c-0.153,0 -0.262,0.116 -0.262,0.291l-0.001,0Zm0.118,-0.053c0.007,-0.138 0.056,-0.179 0.123,-0.179c0.078,0 0.106,0.061 0.106,0.137c0,0.012 0,0.029 -0.002,0.042l-0.227,0l0,0Z" style="fill-rule:nonzero;"/></g><g transform="matrix(12,0,0,12,616.395,195.838)"><path d="M0.036,-0.053l0,0.053l0.273,0l0,-0.053l-0.083,-0.009l0,-0.741l-0.024,-0.017l-0.001,0l-0.166,0.021l0,0.047l0.08,0.009l0,0.681l-0.079,0.009l0,0Z" style="fill-rule:nonzero;"/></g><g transform="matrix(12,0,0,12,620.426,195.838)"><path d="M0.043,-0.053l0,0.053l0.301,0l0,-0.053l-0.106,-0.009l0,-0.422l0.134,0l0,-0.07l-0.134,0l-0.001,-0.085c0,-0.077 0.022,-0.097 0.086,-0.097c0.047,0 0.084,0.016 0.094,0.025l0,-0.109c-0.011,-0.004 -0.025,-0.008 -0.058,-0.008c-0.116,0 -0.233,0.099 -0.233,0.227l0,0.047l-0.093,0.022l0,0.048l0.093,0l0,0.422l-0.083,0.009l0,0Z" style="fill-rule:nonzero;"/></g><g transform="matrix(12,0,0,12,628.887,195.838)"><path d="M0.369,-0.337c-0.168,0.003 -0.327,0.053 -0.327,0.19c0,0.11 0.078,0.158 0.168,0.158c0.082,0 0.145,-0.052 0.166,-0.073l0,0.023c0,0.045 0.015,0.05 0.052,0.05c0.035,0 0.083,-0.011 0.108,-0.017l0,-0.048l-0.06,0l0,-0.317c0,-0.142 -0.048,-0.196 -0.189,-0.196c-0.094,0 -0.203,0.056 -0.226,0.077l0.024,0.051l0.001,0c0.036,-0.019 0.101,-0.047 0.174,-0.047c0.086,0 0.109,0.035 0.109,0.123l0,0.026l0,0Zm0,0.23c-0.033,0.025 -0.082,0.044 -0.112,0.044c-0.054,0 -0.094,-0.027 -0.094,-0.099c0,-0.064 0.055,-0.12 0.206,-0.12l0,0.175l0,0Z" style="fill-rule:nonzero;"/></g><g transform="matrix(12,0,0,12,635.613,195.838)"><path d="M0.306,0.011c0.176,0 0.285,-0.139 0.285,-0.308c0,-0.193 -0.104,-0.273 -0.218,-0.273c-0.08,0 -0.137,0.04 -0.169,0.076l0,-0.055l-0.022,-0.019l-0.003,0l-0.144,0.019l0,0.059l0.07,0.019l0,0.649l-0.073,0.011l0,0.053l0.284,0l0,-0.053l-0.1,-0.01l0,-0.097l-0.003,-0.083c0.023,0.006 0.062,0.012 0.093,0.012l0,0Zm-0.09,-0.459c0.02,-0.022 0.061,-0.048 0.112,-0.048c0.08,0 0.145,0.064 0.143,0.215c-0.002,0.17 -0.073,0.237 -0.162,0.237c-0.046,0 -0.084,-0.016 -0.093,-0.031l0,-0.373l0,0Z" style="fill-rule:nonzero;"/></g><g transform="matrix(12,0,0,12,643.195,195.838)"><path d="M0.306,0.011c0.176,0 0.285,-0.139 0.285,-0.308c0,-0.193 -0.104,-0.273 -0.218,-0.273c-0.08,0 -0.137,0.04 -0.169,0.076l0,-0.055l-0.022,-0.019l-0.003,0l-0.144,0.019l0,0.059l0.07,0.019l0,0.649l-0.073,0.011l0,0.053l0.284,0l0,-0.053l-0.1,-0.01l0,-0.097l-0.003,-0.083c0.023,0.006 0.062,0.012 0.093,0.012l0,0Zm-0.09,-0.459c0.02,-0.022 0.061,-0.048 0.112,-0.048c0.08,0 0.145,0.064 0.143,0.215c-0.002,0.17 -0.073,0.237 -0.162,0.237c-0.046,0 -0.084,-0.016 -0.093,-0.031l0,-0.373l0,0Z" style="fill-rule:nonzero;"/></g></g></g></g><g><g transform="matrix(0.652174,0,0,0.557047,-1.14674,32.3238)"><rect x="562" y="174" width="207" height="149" style="fill:none;stroke:#000;stroke-width:1.65px;"/><g transform="matrix(1.53333,0,0,1.79518,-299.733,-138.361)"><g transform="matrix(12,0,0,12,598.053,214.419)"><path d="M0.078,-0.743l0,0.716c0.013,0.012 0.095,0.038 0.197,0.038c0.18,0 0.289,-0.137 0.289,-0.308c0,-0.194 -0.104,-0.273 -0.217,-0.273c-0.072,0 -0.125,0.033 -0.158,0.065l0,-0.298l-0.024,-0.017l-0.003,0l-0.164,0.021l0,0.046l0.08,0.01Zm0.111,0.3c0.019,-0.022 0.061,-0.052 0.113,-0.052c0.081,0 0.144,0.066 0.142,0.214c-0.002,0.159 -0.069,0.236 -0.161,0.236c-0.045,0 -0.085,-0.011 -0.094,-0.032l0,-0.366l0,0Z" style="fill-rule:nonzero;"/></g><g transform="matrix(12,0,0,12,605.324,214.419)"><path d="M0.303,-0.57c-0.133,0 -0.264,0.104 -0.264,0.29c0,0.164 0.077,0.291 0.252,0.291c0.134,0 0.265,-0.102 0.265,-0.29c0,-0.164 -0.077,-0.291 -0.253,-0.291l0,0Zm0.13,0.299c0,0.148 -0.046,0.222 -0.136,0.222c-0.097,0 -0.135,-0.102 -0.135,-0.24c0,-0.148 0.046,-0.221 0.135,-0.221c0.099,0 0.136,0.103 0.136,0.239l0,0Z" style="fill-rule:nonzero;"/></g><g transform="matrix(12,0,0,12,612.461,214.419)"><path d="M0.303,-0.57c-0.133,0 -0.264,0.104 -0.264,0.29c0,0.164 0.077,0.291 0.252,0.291c0.134,0 0.265,-0.102 0.265,-0.29c0,-0.164 -0.077,-0.291 -0.253,-0.291l0,0Zm0.13,0.299c0,0.148 -0.046,0.222 -0.136,0.222c-0.097,0 -0.135,-0.102 -0.135,-0.24c0,-0.148 0.046,-0.221 0.135,-0.221c0.099,0 0.136,0.103 0.136,0.239l0,0Z" style="fill-rule:nonzero;"/></g><g transform="matrix(12,0,0,12,619.598,214.419)"><path d="M0.038,-0.053l0,0.053l0.245,0l0,-0.053l-0.07,-0.009l0,-0.077l-0.003,-0.051l0.096,-0.095l0.138,0.223l-0.059,0.009l0,0.053l0.245,0l0,-0.053l-0.059,-0.009l-0.191,-0.288l0.142,-0.139l0.077,-0.016l0,-0.05l-0.249,0l0,0.05l0.079,0.014l-0.218,0.227l0.002,-0.056l0,-0.483l-0.024,-0.017l-0.001,0l-0.163,0.021l0,0.047l0.077,0.009l0,0.681l-0.064,0.009l0,0Z" style="fill-rule:nonzero;"/></g><g transform="matrix(12,0,0,12,630.484,214.419)"><path d="M0.097,-0.727c0,0.038 0.026,0.067 0.064,0.067l0.001,0c0.051,0 0.076,-0.035 0.076,-0.078c0,-0.035 -0.024,-0.068 -0.067,-0.068l-0.001,0c-0.048,0 -0.073,0.037 -0.073,0.079l0,0Zm-0.059,0.674l0,0.053l0.269,0l0,-0.053l-0.078,-0.009l0,-0.487l-0.025,-0.019l-0.002,0l-0.156,0.02l0,0.057l0.071,0.02l0,0.409l-0.079,0.009l0,0Z" style="fill-rule:nonzero;"/></g><g transform="matrix(12,0,0,12,634.498,214.419)"><path d="M0.05,-0.053l0,0.053l0.243,0l0,-0.053l-0.067,-0.009l0,-0.378c0.035,-0.027 0.09,-0.052 0.14,-0.052c0.083,0 0.098,0.049 0.098,0.154l0,0.276l-0.063,0.009l0,0.053l0.245,0l0,-0.053l-0.07,-0.009l0,-0.275c0,-0.162 -0.032,-0.231 -0.16,-0.231c-0.073,0 -0.16,0.042 -0.203,0.081l0.001,-0.023l0,-0.039l-0.023,-0.019l-0.003,0l-0.144,0.019l0,0.059l0.07,0.019l0,0.409l-0.064,0.009l0,0Z" style="fill-rule:nonzero;"/></g><g transform="matrix(12,0,0,12,646.164,214.419)"><path d="M0.369,-0.337c-0.168,0.003 -0.327,0.053 -0.327,0.19c0,0.11 0.078,0.158 0.168,0.158c0.082,0 0.145,-0.052 0.166,-0.073l0,0.023c0,0.045 0.015,0.05 0.052,0.05c0.035,0 0.083,-0.011 0.108,-0.017l0,-0.048l-0.06,0l0,-0.317c0,-0.142 -0.048,-0.196 -0.189,-0.196c-0.094,0 -0.203,0.056 -0.226,0.077l0.024,0.051l0.001,0c0.036,-0.019 0.101,-0.047 0.174,-0.047c0.086,0 0.109,0.035 0.109,0.123l0,0.026l0,0Zm0,0.23c-0.033,0.025 -0.082,0.044 -0.112,0.044c-0.054,0 -0.094,-0.027 -0.094,-0.099c0,-0.064 0.055,-0.12 0.206,-0.12l0,0.175l0,0Z" style="fill-rule:nonzero;"/></g><g transform="matrix(12,0,0,12,652.891,214.419)"><path d="M0.05,-0.053l0,0.053l0.243,0l0,-0.053l-0.067,-0.009l0,-0.378c0.035,-0.027 0.09,-0.052 0.14,-0.052c0.083,0 0.098,0.049 0.098,0.154l0,0.276l-0.063,0.009l0,0.053l0.245,0l0,-0.053l-0.07,-0.009l0,-0.275c0,-0.162 -0.032,-0.231 -0.16,-0.231c-0.073,0 -0.16,0.042 -0.203,0.081l0.001,-0.023l0,-0.039l-0.023,-0.019l-0.003,0l-0.144,0.019l0,0.059l0.07,0.019l0,0.409l-0.064,0.009l0,0Z" style="fill-rule:nonzero;"/></g><g transform="matrix(12,0,0,12,582.684,226.419)"><path d="M0.097,-0.727c0,0.038 0.026,0.067 0.064,0.067l0.001,0c0.051,0 0.076,-0.035 0.076,-0.078c0,-0.035 -0.024,-0.068 -0.067,-0.068l-0.001,0c-0.048,0 -0.073,0.037 -0.073,0.079l0,0Zm-0.059,0.674l0,0.053l0.269,0l0,-0.053l-0.078,-0.009l0,-0.487l-0.025,-0.019l-0.002,0l-0.156,0.02l0,0.057l0.071,0.02l0,0.409l-0.079,0.009l0,0Z" style="fill-rule:nonzero;"/></g><g transform="matrix(12,0,0,12,586.697,226.419)"><path d="M0.05,-0.053l0,0.053l0.243,0l0,-0.053l-0.067,-0.009l0,-0.378c0.035,-0.027 0.09,-0.052 0.14,-0.052c0.083,0 0.098,0.049 0.098,0.154l0,0.276l-0.063,0.009l0,0.053l0.245,0l0,-0.053l-0.07,-0.009l0,-0.275c0,-0.162 -0.032,-0.231 -0.16,-0.231c-0.073,0 -0.16,0.042 -0.203,0.081l0.001,-0.023l0,-0.039l-0.023,-0.019l-0.003,0l-0.144,0.019l0,0.059l0.07,0.019l0,0.409l-0.064,0.009l0,0Z" style="fill-rule:nonzero;"/></g><g transform="matrix(12,0,0,12,594.754,226.419)"><rect x="0.112" y="-0.34" width="0.415" height="0.079" style="fill-rule:nonzero;"/></g><g transform="matrix(12,0,0,12,602.43,226.419)"><path d="M0.369,-0.337c-0.168,0.003 -0.327,0.053 -0.327,0.19c0,0.11 0.078,0.158 0.168,0.158c0.082,0 0.145,-0.052 0.166,-0.073l0,0.023c0,0.045 0.015,0.05 0.052,0.05c0.035,0 0.083,-0.011 0.108,-0.017l0,-0.048l-0.06,0l0,-0.317c0,-0.142 -0.048,-0.196 -0.189,-0.196c-0.094,0 -0.203,0.056 -0.226,0.077l0.024,0.051l0.001,0c0.036,-0.019 0.101,-0.047 0.174,-0.047c0.086,0 0.109,0.035 0.109,0.123l0,0.026l0,0Zm0,0.23c-0.033,0.025 -0.082,0.044 -0.112,0.044c-0.054,0 -0.094,-0.027 -0.094,-0.099c0,-0.064 0.055,-0.12 0.206,-0.12l0,0.175l0,0Z" style="fill-rule:nonzero;"/></g><g transform="matrix(12,0,0,12,609.156,226.419)"><path d="M0.306,0.011c0.176,0 0.285,-0.139 0.285,-0.308c0,-0.193 -0.104,-0.273 -0.218,-0.273c-0.08,0 -0.137,0.04 -0.169,0.076l0,-0.055l-0.022,-0.019l-0.003,0l-0.144,0.019l0,0.059l0.07,0.019l0,0.649l-0.073,0.011l0,0.053l0.284,0l0,-0.053l-0.1,-0.01l0,-0.097l-0.003,-0.083c0.023,0.006 0.062,0.012 0.093,0.012l0,0Zm-0.09,-0.459c0.02,-0.022 0.061,-0.048 0.112,-0.048c0.08,0 0.145,0.064 0.143,0.215c-0.002,0.17 -0.073,0.237 -0.162,0.237c-0.046,0 -0.084,-0.016 -0.093,-0.031l0,-0.373l0,0Z" style="fill-rule:nonzero;"/></g><g transform="matrix(12,0,0,12,616.738,226.419)"><path d="M0.306,0.011c0.176,0 0.285,-0.139 0.285,-0.308c0,-0.193 -0.104,-0.273 -0.218,-0.273c-0.08,0 -0.137,0.04 -0.169,0.076l0,-0.055l-0.022,-0.019l-0.003,0l-0.144,0.019l0,0.059l0.07,0.019l0,0.649l-0.073,0.011l0,0.053l0.284,0l0,-0.053l-0.1,-0.01l0,-0.097l-0.003,-0.083c0.023,0.006 0.062,0.012 0.093,0.012l0,0Zm-0.09,-0.459c0.02,-0.022 0.061,-0.048 0.112,-0.048c0.08,0 0.145,0.064 0.143,0.215c-0.002,0.17 -0.073,0.237 -0.162,0.237c-0.046,0 -0.084,-0.016 -0.093,-0.031l0,-0.373l0,0Z" style="fill-rule:nonzero;"/></g><g transform="matrix(12,0,0,12,627.93,226.419)"><path d="M0.078,-0.743l0,0.716c0.013,0.012 0.095,0.038 0.197,0.038c0.18,0 0.289,-0.137 0.289,-0.308c0,-0.194 -0.104,-0.273 -0.217,-0.273c-0.072,0 -0.125,0.033 -0.158,0.065l0,-0.298l-0.024,-0.017l-0.003,0l-0.164,0.021l0,0.046l0.08,0.01Zm0.111,0.3c0.019,-0.022 0.061,-0.052 0.113,-0.052c0.081,0 0.144,0.066 0.142,0.214c-0.002,0.159 -0.069,0.236 -0.161,0.236c-0.045,0 -0.085,-0.011 -0.094,-0.032l0,-0.366l0,0Z" style="fill-rule:nonzero;"/></g><g transform="matrix(12,0,0,12,635.201,226.419)"><path d="M0.045,-0.053l0,0.053l0.317,0l0,-0.052l-0.129,-0.009l0,-0.355c0.027,-0.02 0.073,-0.042 0.145,-0.042c0.026,0 0.047,0.007 0.058,0.013l0,-0.12c-0.007,-0.003 -0.018,-0.005 -0.032,-0.005c-0.105,0 -0.175,0.095 -0.186,0.115l-0.001,0l0.001,-0.064l0,-0.03l-0.023,-0.019l-0.003,0l-0.139,0.019l0,0.059l0.069,0.019l0,0.41l-0.077,0.008l0,0Z" style="fill-rule:nonzero;"/></g><g transform="matrix(12,0,0,12,640.727,226.419)"><path d="M0.303,-0.57c-0.133,0 -0.264,0.104 -0.264,0.29c0,0.164 0.077,0.291 0.252,0.291c0.134,0 0.265,-0.102 0.265,-0.29c0,-0.164 -0.077,-0.291 -0.253,-0.291l0,0Zm0.13,0.299c0,0.148 -0.046,0.222 -0.136,0.222c-0.097,0 -0.135,-0.102 -0.135,-0.24c0,-0.148 0.046,-0.221 0.135,-0.221c0.099,0 0.136,0.103 0.136,0.239l0,0Z" style="fill-rule:nonzero;"/></g><g transform="matrix(12,0,0,12,647.863,226.419)"><path d="M0.047,-0.491l0.16,0.499l0.1,0l0.101,-0.354l0.019,-0.118l0.025,0.118l0.106,0.354l0.102,0l0.153,-0.499l0.055,-0.012l0,-0.052l-0.211,0l0,0.052l0.075,0.013l-0.078,0.288l-0.029,0.122l-0.027,-0.124l-0.1,-0.351l-0.104,0l-0.099,0.352l-0.026,0.124l-0.028,-0.124l-0.08,-0.288l0.077,-0.012l0,-0.052l-0.245,0l0,0.052l0.054,0.012l0,0Z" style="fill-rule:nonzero;"/></g><g transform="matrix(12,0,0,12,658.164,226.419)"><path d="M0.058,-0.159l0,0.128c0.034,0.015 0.117,0.042 0.192,0.042c0.135,0 0.215,-0.066 0.215,-0.164c0,-0.101 -0.083,-0.14 -0.171,-0.179c-0.066,-0.028 -0.129,-0.047 -0.129,-0.112c0,-0.04 0.033,-0.07 0.096,-0.069c0.042,0 0.078,0.015 0.086,0.032l0.021,0.068l0.063,0l0,-0.124c-0.026,-0.006 -0.081,-0.03 -0.166,-0.03c-0.117,0 -0.204,0.058 -0.204,0.148c0,0.089 0.048,0.139 0.149,0.178c0.099,0.039 0.148,0.068 0.148,0.119c0,0.044 -0.024,0.078 -0.102,0.078c-0.049,0 -0.098,-0.02 -0.11,-0.04l-0.019,-0.075l-0.069,0l0,0Z" style="fill-rule:nonzero;"/></g><g transform="matrix(12,0,0,12,664.275,226.419)"><path d="M0.041,-0.279c0,0.171 0.083,0.29 0.251,0.29c0.082,0 0.166,-0.036 0.202,-0.074l-0.02,-0.047c-0.03,0.023 -0.093,0.046 -0.149,0.046c-0.088,0 -0.161,-0.062 -0.166,-0.211l0.339,0c0.005,-0.024 0.006,-0.055 0.005,-0.096c-0.004,-0.129 -0.075,-0.199 -0.199,-0.199c-0.153,0 -0.262,0.116 -0.262,0.291l-0.001,0Zm0.118,-0.053c0.007,-0.138 0.056,-0.179 0.123,-0.179c0.078,0 0.106,0.061 0.106,0.137c0,0.012 0,0.029 -0.002,0.042l-0.227,0l0,0Z" style="fill-rule:nonzero;"/></g><g transform="matrix(12,0,0,12,670.791,226.419)"><path d="M0.045,-0.053l0,0.053l0.317,0l0,-0.052l-0.129,-0.009l0,-0.355c0.027,-0.02 0.073,-0.042 0.145,-0.042c0.026,0 0.047,0.007 0.058,0.013l0,-0.12c-0.007,-0.003 -0.018,-0.005 -0.032,-0.005c-0.105,0 -0.175,0.095 -0.186,0.115l-0.001,0l0.001,-0.064l0,-0.03l-0.023,-0.019l-0.003,0l-0.139,0.019l0,0.059l0.069,0.019l0,0.41l-0.077,0.008l0,0Z" style="fill-rule:nonzero;"/></g></g></g><g transform="matrix(0.710145,0,0,1.1443,-39.7264,-151.357)"><rect x="562" y="174" width="207" height="149" style="fill:none;stroke:#000;stroke-width:1.05px;"/><g transform="matrix(1.40816,0,0,0.8739,-229.388,21.9413)"><g transform="matrix(12,0,0,12,567,195.838)"><path d="M0.078,-0.743l0,0.716c0.013,0.012 0.095,0.038 0.197,0.038c0.18,0 0.289,-0.137 0.289,-0.308c0,-0.194 -0.104,-0.273 -0.217,-0.273c-0.072,0 -0.125,0.033 -0.158,0.065l0,-0.298l-0.024,-0.017l-0.003,0l-0.164,0.021l0,0.046l0.08,0.01Zm0.111,0.3c0.019,-0.022 0.061,-0.052 0.113,-0.052c0.081,0 0.144,0.066 0.142,0.214c-0.002,0.159 -0.069,0.236 -0.161,0.236c-0.045,0 -0.085,-0.011 -0.094,-0.032l0,-0.366l0,0Z" style="fill-rule:nonzero;"/></g><g transform="matrix(12,0,0,12,574.271,195.838)"><path d="M0.303,-0.57c-0.133,0 -0.264,0.104 -0.264,0.29c0,0.164 0.077,0.291 0.252,0.291c0.134,0 0.265,-0.102 0.265,-0.29c0,-0.164 -0.077,-0.291 -0.253,-0.291l0,0Zm0.13,0.299c0,0.148 -0.046,0.222 -0.136,0.222c-0.097,0 -0.135,-0.102 -0.135,-0.24c0,-0.148 0.046,-0.221 0.135,-0.221c0.099,0 0.136,0.103 0.136,0.239l0,0Z" style="fill-rule:nonzero;"/></g><g transform="matrix(12,0,0,12,581.408,195.838)"><path d="M0.303,-0.57c-0.133,0 -0.264,0.104 -0.264,0.29c0,0.164 0.077,0.291 0.252,0.291c0.134,0 0.265,-0.102 0.265,-0.29c0,-0.164 -0.077,-0.291 -0.253,-0.291l0,0Zm0.13,0.299c0,0.148 -0.046,0.222 -0.136,0.222c-0.097,0 -0.135,-0.102 -0.135,-0.24c0,-0.148 0.046,-0.221 0.135,-0.221c0.099,0 0.136,0.103 0.136,0.239l0,0Z" style="fill-rule:nonzero;"/></g><g transform="matrix(12,0,0,12,588.545,195.838)"><path d="M0.038,-0.053l0,0.053l0.245,0l0,-0.053l-0.07,-0.009l0,-0.077l-0.003,-0.051l0.096,-0.095l0.138,0.223l-0.059,0.009l0,0.053l0.245,0l0,-0.053l-0.059,-0.009l-0.191,-0.288l0.142,-0.139l0.077,-0.016l0,-0.05l-0.249,0l0,0.05l0.079,0.014l-0.218,0.227l0.002,-0.056l0,-0.483l-0.024,-0.017l-0.001,0l-0.163,0.021l0,0.047l0.077,0.009l0,0.681l-0.064,0.009l0,0Z" style="fill-rule:nonzero;"/></g><g transform="matrix(12,0,0,12,595.822,195.838)"><path d="M0.058,-0.159l0,0.128c0.034,0.015 0.117,0.042 0.192,0.042c0.135,0 0.215,-0.066 0.215,-0.164c0,-0.101 -0.083,-0.14 -0.171,-0.179c-0.066,-0.028 -0.129,-0.047 -0.129,-0.112c0,-0.04 0.033,-0.07 0.096,-0.069c0.042,0 0.078,0.015 0.086,0.032l0.021,0.068l0.063,0l0,-0.124c-0.026,-0.006 -0.081,-0.03 -0.166,-0.03c-0.117,0 -0.204,0.058 -0.204,0.148c0,0.089 0.048,0.139 0.149,0.178c0.099,0.039 0.148,0.068 0.148,0.119c0,0.044 -0.024,0.078 -0.102,0.078c-0.049,0 -0.098,-0.02 -0.11,-0.04l-0.019,-0.075l-0.069,0l0,0Z" style="fill-rule:nonzero;"/></g><g transform="matrix(12,0,0,12,601.934,195.838)"><path d="M0.043,-0.053l0,0.053l0.24,0l0,-0.053l-0.069,-0.009l0,-0.379c0.037,-0.029 0.093,-0.051 0.141,-0.051c0.085,0 0.1,0.05 0.1,0.154l0,0.277l-0.064,0.008l0,0.053l0.246,0l0,-0.053l-0.071,-0.009l0,-0.275c0,-0.161 -0.033,-0.231 -0.16,-0.231c-0.084,0 -0.162,0.048 -0.197,0.079l0.004,-0.088l0,-0.226l-0.024,-0.017l-0.002,0l-0.166,0.021l0,0.047l0.081,0.009l0,0.682l-0.059,0.008l0,0Z" style="fill-rule:nonzero;"/></g><g transform="matrix(12,0,0,12,609.879,195.838)"><path d="M0.041,-0.279c0,0.171 0.083,0.29 0.251,0.29c0.082,0 0.166,-0.036 0.202,-0.074l-0.02,-0.047c-0.03,0.023 -0.093,0.046 -0.149,0.046c-0.088,0 -0.161,-0.062 -0.166,-0.211l0.339,0c0.005,-0.024 0.006,-0.055 0.005,-0.096c-0.004,-0.129 -0.075,-0.199 -0.199,-0.199c-0.153,0 -0.262,0.116 -0.262,0.291l-0.001,0Zm0.118,-0.053c0.007,-0.138 0.056,-0.179 0.123,-0.179c0.078,0 0.106,0.061 0.106,0.137c0,0.012 0,0.029 -0.002,0.042l-0.227,0l0,0Z" style="fill-rule:nonzero;"/></g><g transform="matrix(12,0,0,12,616.395,195.838)"><path d="M0.036,-0.053l0,0.053l0.273,0l0,-0.053l-0.083,-0.009l0,-0.741l-0.024,-0.017l-0.001,0l-0.166,0.021l0,0.047l0.08,0.009l0,0.681l-0.079,0.009l0,0Z" style="fill-rule:nonzero;"/></g><g transform="matrix(12,0,0,12,620.426,195.838)"><path d="M0.043,-0.053l0,0.053l0.301,0l0,-0.053l-0.106,-0.009l0,-0.422l0.134,0l0,-0.07l-0.134,0l-0.001,-0.085c0,-0.077 0.022,-0.097 0.086,-0.097c0.047,0 0.084,0.016 0.094,0.025l0,-0.109c-0.011,-0.004 -0.025,-0.008 -0.058,-0.008c-0.116,0 -0.233,0.099 -0.233,0.227l0,0.047l-0.093,0.022l0,0.048l0.093,0l0,0.422l-0.083,0.009l0,0Z" style="fill-rule:nonzero;"/></g><g transform="matrix(12,0,0,12,628.887,195.838)"><path d="M0.369,-0.337c-0.168,0.003 -0.327,0.053 -0.327,0.19c0,0.11 0.078,0.158 0.168,0.158c0.082,0 0.145,-0.052 0.166,-0.073l0,0.023c0,0.045 0.015,0.05 0.052,0.05c0.035,0 0.083,-0.011 0.108,-0.017l0,-0.048l-0.06,0l0,-0.317c0,-0.142 -0.048,-0.196 -0.189,-0.196c-0.094,0 -0.203,0.056 -0.226,0.077l0.024,0.051l0.001,0c0.036,-0.019 0.101,-0.047 0.174,-0.047c0.086,0 0.109,0.035 0.109,0.123l0,0.026l0,0Zm0,0.23c-0.033,0.025 -0.082,0.044 -0.112,0.044c-0.054,0 -0.094,-0.027 -0.094,-0.099c0,-0.064 0.055,-0.12 0.206,-0.12l0,0.175l0,0Z" style="fill-rule:nonzero;"/></g><g transform="matrix(12,0,0,12,635.613,195.838)"><path d="M0.306,0.011c0.176,0 0.285,-0.139 0.285,-0.308c0,-0.193 -0.104,-0.273 -0.218,-0.273c-0.08,0 -0.137,0.04 -0.169,0.076l0,-0.055l-0.022,-0.019l-0.003,0l-0.144,0.019l0,0.059l0.07,0.019l0,0.649l-0.073,0.011l0,0.053l0.284,0l0,-0.053l-0.1,-0.01l0,-0.097l-0.003,-0.083c0.023,0.006 0.062,0.012 0.093,0.012l0,0Zm-0.09,-0.459c0.02,-0.022 0.061,-0.048 0.112,-0.048c0.08,0 0.145,0.064 0.143,0.215c-0.002,0.17 -0.073,0.237 -0.162,0.237c-0.046,0 -0.084,-0.016 -0.093,-0.031l0,-0.373l0,0Z" style="fill-rule:nonzero;"/></g><g transform="matrix(12,0,0,12,643.195,195.838)"><path d="M0.306,0.011c0.176,0 0.285,-0.139 0.285,-0.308c0,-0.193 -0.104,-0.273 -0.218,-0.273c-0.08,0 -0.137,0.04 -0.169,0.076l0,-0.055l-0.022,-0.019l-0.003,0l-0.144,0.019l0,0.059l0.07,0.019l0,0.649l-0.073,0.011l0,0.053l0.284,0l0,-0.053l-0.1,-0.01l0,-0.097l-0.003,-0.083c0.023,0.006 0.062,0.012 0.093,0.012l0,0Zm-0.09,-0.459c0.02,-0.022 0.061,-0.048 0.112,-0.048c0.08,0 0.145,0.064 0.143,0.215c-0.002,0.17 -0.073,0.237 -0.162,0.237c-0.046,0 -0.084,-0.016 -0.093,-0.031l0,-0.373l0,0Z" style="fill-rule:nonzero;"/></g></g></g></g><g><g transform="matrix(0.652174,0,0,0.275168,168.603,55.3708)"><rect x="562" y="174" width="207" height="149" style="fill:none;stroke:#000;stroke-width:2px;"/><g transform="matrix(1.53333,0,0,3.63415,-299.733,-458.341)"><g transform="matrix(12,0,0,12,598.053,193.419)"><path d="M0.078,-0.743l0,0.716c0.013,0.012 0.095,0.038 0.197,0.038c0.18,0 0.289,-0.137 0.289,-0.308c0,-0.194 -0.104,-0.273 -0.217,-0.273c-0.072,0 -0.125,0.033 -0.158,0.065l0,-0.298l-0.024,-0.017l-0.003,0l-0.164,0.021l0,0.046l0.08,0.01Zm0.111,0.3c0.019,-0.022 0.061,-0.052 0.113,-0.052c0.081,0 0.144,0.066 0.142,0.214c-0.002,0.159 -0.069,0.236 -0.161,0.236c-0.045,0 -0.085,-0.011 -0.094,-0.032l0,-0.366l0,0Z" style="fill-rule:nonzero;"/></g><g transform="matrix(12,0,0,12,605.324,193.419)"><path d="M0.303,-0.57c-0.133,0 -0.264,0.104 -0.264,0.29c0,0.164 0.077,0.291 0.252,0.291c0.134,0 0.265,-0.102 0.265,-0.29c0,-0.164 -0.077,-0.291 -0.253,-0.291l0,0Zm0.13,0.299c0,0.148 -0.046,0.222 -0.136,0.222c-0.097,0 -0.135,-0.102 -0.135,-0.24c0,-0.148 0.046,-0.221 0.135,-0.221c0.099,0 0.136,0.103 0.136,0.239l0,0Z" style="fill-rule:nonzero;"/></g><g transform="matrix(12,0,0,12,612.461,193.419)"><path d="M0.303,-0.57c-0.133,0 -0.264,0.104 -0.264,0.29c0,0.164 0.077,0.291 0.252,0.291c0.134,0 0.265,-0.102 0.265,-0.29c0,-0.164 -0.077,-0.291 -0.253,-0.291l0,0Zm0.13,0.299c0,0.148 -0.046,0.222 -0.136,0.222c-0.097,0 -0.135,-0.102 -0.135,-0.24c0,-0.148 0.046,-0.221 0.135,-0.221c0.099,0 0.136,0.103 0.136,0.239l0,0Z" style="fill-rule:nonzero;"/></g><g transform="matrix(12,0,0,12,619.598,193.419)"><path d="M0.038,-0.053l0,0.053l0.245,0l0,-0.053l-0.07,-0.009l0,-0.077l-0.003,-0.051l0.096,-0.095l0.138,0.223l-0.059,0.009l0,0.053l0.245,0l0,-0.053l-0.059,-0.009l-0.191,-0.288l0.142,-0.139l0.077,-0.016l0,-0.05l-0.249,0l0,0.05l0.079,0.014l-0.218,0.227l0.002,-0.056l0,-0.483l-0.024,-0.017l-0.001,0l-0.163,0.021l0,0.047l0.077,0.009l0,0.681l-0.064,0.009l0,0Z" style="fill-rule:nonzero;"/></g><g transform="matrix(12,0,0,12,630.484,193.419)"><path d="M0.097,-0.727c0,0.038 0.026,0.067 0.064,0.067l0.001,0c0.051,0 0.076,-0.035 0.076,-0.078c0,-0.035 -0.024,-0.068 -0.067,-0.068l-0.001,0c-0.048,0 -0.073,0.037 -0.073,0.079l0,0Zm-0.059,0.674l0,0.053l0.269,0l0,-0.053l-0.078,-0.009l0,-0.487l-0.025,-0.019l-0.002,0l-0.156,0.02l0,0.057l0.071,0.02l0,0.409l-0.079,0.009l0,0Z" style="fill-rule:nonzero;"/></g><g transform="matrix(12,0,0,12,634.498,193.419)"><path d="M0.05,-0.053l0,0.053l0.243,0l0,-0.053l-0.067,-0.009l0,-0.378c0.035,-0.027 0.09,-0.052 0.14,-0.052c0.083,0 0.098,0.049 0.098,0.154l0,0.276l-0.063,0.009l0,0.053l0.245,0l0,-0.053l-0.07,-0.009l0,-0.275c0,-0.162 -0.032,-0.231 -0.16,-0.231c-0.073,0 -0.16,0.042 -0.203,0.081l0.001,-0.023l0,-0.039l-0.023,-0.019l-0.003,0l-0.144,0.019l0,0.059l0.07,0.019l0,0.409l-0.064,0.009l0,0Z" style="fill-rule:nonzero;"/></g><g transform="matrix(12,0,0,12,646.164,193.419)"><path d="M0.369,-0.337c-0.168,0.003 -0.327,0.053 -0.327,0.19c0,0.11 0.078,0.158 0.168,0.158c0.082,0 0.145,-0.052 0.166,-0.073l0,0.023c0,0.045 0.015,0.05 0.052,0.05c0.035,0 0.083,-0.011 0.108,-0.017l0,-0.048l-0.06,0l0,-0.317c0,-0.142 -0.048,-0.196 -0.189,-0.196c-0.094,0 -0.203,0.056 -0.226,0.077l0.024,0.051l0.001,0c0.036,-0.019 0.101,-0.047 0.174,-0.047c0.086,0 0.109,0.035 0.109,0.123l0,0.026l0,0Zm0,0.23c-0.033,0.025 -0.082,0.044 -0.112,0.044c-0.054,0 -0.094,-0.027 -0.094,-0.099c0,-0.064 0.055,-0.12 0.206,-0.12l0,0.175l0,0Z" style="fill-rule:nonzero;"/></g><g transform="matrix(12,0,0,12,652.891,193.419)"><path d="M0.05,-0.053l0,0.053l0.243,0l0,-0.053l-0.067,-0.009l0,-0.378c0.035,-0.027 0.09,-0.052 0.14,-0.052c0.083,0 0.098,0.049 0.098,0.154l0,0.276l-0.063,0.009l0,0.053l0.245,0l0,-0.053l-0.07,-0.009l0,-0.275c0,-0.162 -0.032,-0.231 -0.16,-0.231c-0.073,0 -0.16,0.042 -0.203,0.081l0.001,-0.023l0,-0.039l-0.023,-0.019l-0.003,0l-0.144,0.019l0,0.059l0.07,0.019l0,0.409l-0.064,0.009l0,0Z" style="fill-rule:nonzero;"/></g><g transform="matrix(12,0,0,12,582.684,205.419)"><path d="M0.097,-0.727c0,0.038 0.026,0.067 0.064,0.067l0.001,0c0.051,0 0.076,-0.035 0.076,-0.078c0,-0.035 -0.024,-0.068 -0.067,-0.068l-0.001,0c-0.048,0 -0.073,0.037 -0.073,0.079l0,0Zm-0.059,0.674l0,0.053l0.269,0l0,-0.053l-0.078,-0.009l0,-0.487l-0.025,-0.019l-0.002,0l-0.156,0.02l0,0.057l0.071,0.02l0,0.409l-0.079,0.009l0,0Z" style="fill-rule:nonzero;"/></g><g transform="matrix(12,0,0,12,586.697,205.419)"><path d="M0.05,-0.053l0,0.053l0.243,0l0,-0.053l-0.067,-0.009l0,-0.378c0.035,-0.027 0.09,-0.052 0.14,-0.052c0.083,0 0.098,0.049 0.098,0.154l0,0.276l-0.063,0.009l0,0.053l0.245,0l0,-0.053l-0.07,-0.009l0,-0.275c0,-0.162 -0.032,-0.231 -0.16,-0.231c-0.073,0 -0.16,0.042 -0.203,0.081l0.001,-0.023l0,-0.039l-0.023,-0.019l-0.003,0l-0.144,0.019l0,0.059l0.07,0.019l0,0.409l-0.064,0.009l0,0Z" style="fill-rule:nonzero;"/></g><g transform="matrix(12,0,0,12,594.754,205.419)"><rect x="0.112" y="-0.34" width="0.415" height="0.079" style="fill-rule:nonzero;"/></g><g transform="matrix(12,0,0,12,602.43,205.419)"><path d="M0.369,-0.337c-0.168,0.003 -0.327,0.053 -0.327,0.19c0,0.11 0.078,0.158 0.168,0.158c0.082,0 0.145,-0.052 0.166,-0.073l0,0.023c0,0.045 0.015,0.05 0.052,0.05c0.035,0 0.083,-0.011 0.108,-0.017l0,-0.048l-0.06,0l0,-0.317c0,-0.142 -0.048,-0.196 -0.189,-0.196c-0.094,0 -0.203,0.056 -0.226,0.077l0.024,0.051l0.001,0c0.036,-0.019 0.101,-0.047 0.174,-0.047c0.086,0 0.109,0.035 0.109,0.123l0,0.026l0,0Zm0,0.23c-0.033,0.025 -0.082,0.044 -0.112,0.044c-0.054,0 -0.094,-0.027 -0.094,-0.099c0,-0.064 0.055,-0.12 0.206,-0.12l0,0.175l0,0Z" style="fill-rule:nonzero;"/></g><g transform="matrix(12,0,0,12,609.156,205.419)"><path d="M0.306,0.011c0.176,0 0.285,-0.139 0.285,-0.308c0,-0.193 -0.104,-0.273 -0.218,-0.273c-0.08,0 -0.137,0.04 -0.169,0.076l0,-0.055l-0.022,-0.019l-0.003,0l-0.144,0.019l0,0.059l0.07,0.019l0,0.649l-0.073,0.011l0,0.053l0.284,0l0,-0.053l-0.1,-0.01l0,-0.097l-0.003,-0.083c0.023,0.006 0.062,0.012 0.093,0.012l0,0Zm-0.09,-0.459c0.02,-0.022 0.061,-0.048 0.112,-0.048c0.08,0 0.145,0.064 0.143,0.215c-0.002,0.17 -0.073,0.237 -0.162,0.237c-0.046,0 -0.084,-0.016 -0.093,-0.031l0,-0.373l0,0Z" style="fill-rule:nonzero;"/></g><g transform="matrix(12,0,0,12,616.738,205.419)"><path d="M0.306,0.011c0.176,0 0.285,-0.139 0.285,-0.308c0,-0.193 -0.104,-0.273 -0.218,-0.273c-0.08,0 -0.137,0.04 -0.169,0.076l0,-0.055l-0.022,-0.019l-0.003,0l-0.144,0.019l0,0.059l0.07,0.019l0,0.649l-0.073,0.011l0,0.053l0.284,0l0,-0.053l-0.1,-0.01l0,-0.097l-0.003,-0.083c0.023,0.006 0.062,0.012 0.093,0.012l0,0Zm-0.09,-0.459c0.02,-0.022 0.061,-0.048 0.112,-0.048c0.08,0 0.145,0.064 0.143,0.215c-0.002,0.17 -0.073,0.237 -0.162,0.237c-0.046,0 -0.084,-0.016 -0.093,-0.031l0,-0.373l0,0Z" style="fill-rule:nonzero;"/></g><g transform="matrix(12,0,0,12,627.93,205.419)"><path d="M0.078,-0.743l0,0.716c0.013,0.012 0.095,0.038 0.197,0.038c0.18,0 0.289,-0.137 0.289,-0.308c0,-0.194 -0.104,-0.273 -0.217,-0.273c-0.072,0 -0.125,0.033 -0.158,0.065l0,-0.298l-0.024,-0.017l-0.003,0l-0.164,0.021l0,0.046l0.08,0.01Zm0.111,0.3c0.019,-0.022 0.061,-0.052 0.113,-0.052c0.081,0 0.144,0.066 0.142,0.214c-0.002,0.159 -0.069,0.236 -0.161,0.236c-0.045,0 -0.085,-0.011 -0.094,-0.032l0,-0.366l0,0Z" style="fill-rule:nonzero;"/></g><g transform="matrix(12,0,0,12,635.201,205.419)"><path d="M0.045,-0.053l0,0.053l0.317,0l0,-0.052l-0.129,-0.009l0,-0.355c0.027,-0.02 0.073,-0.042 0.145,-0.042c0.026,0 0.047,0.007 0.058,0.013l0,-0.12c-0.007,-0.003 -0.018,-0.005 -0.032,-0.005c-0.105,0 -0.175,0.095 -0.186,0.115l-0.001,0l0.001,-0.064l0,-0.03l-0.023,-0.019l-0.003,0l-0.139,0.019l0,0.059l0.069,0.019l0,0.41l-0.077,0.008l0,0Z" style="fill-rule:nonzero;"/></g><g transform="matrix(12,0,0,12,640.727,205.419)"><path d="M0.303,-0.57c-0.133,0 -0.264,0.104 -0.264,0.29c0,0.164 0.077,0.291 0.252,0.291c0.134,0 0.265,-0.102 0.265,-0.29c0,-0.164 -0.077,-0.291 -0.253,-0.291l0,0Zm0.13,0.299c0,0.148 -0.046,0.222 -0.136,0.222c-0.097,0 -0.135,-0.102 -0.135,-0.24c0,-0.148 0.046,-0.221 0.135,-0.221c0.099,0 0.136,0.103 0.136,0.239l0,0Z" style="fill-rule:nonzero;"/></g><g transform="matrix(12,0,0,12,647.863,205.419)"><path d="M0.047,-0.491l0.16,0.499l0.1,0l0.101,-0.354l0.019,-0.118l0.025,0.118l0.106,0.354l0.102,0l0.153,-0.499l0.055,-0.012l0,-0.052l-0.211,0l0,0.052l0.075,0.013l-0.078,0.288l-0.029,0.122l-0.027,-0.124l-0.1,-0.351l-0.104,0l-0.099,0.352l-0.026,0.124l-0.028,-0.124l-0.08,-0.288l0.077,-0.012l0,-0.052l-0.245,0l0,0.052l0.054,0.012l0,0Z" style="fill-rule:nonzero;"/></g><g transform="matrix(12,0,0,12,658.164,205.419)"><path d="M0.058,-0.159l0,0.128c0.034,0.015 0.117,0.042 0.192,0.042c0.135,0 0.215,-0.066 0.215,-0.164c0,-0.101 -0.083,-0.14 -0.171,-0.179c-0.066,-0.028 -0.129,-0.047 -0.129,-0.112c0,-0.04 0.033,-0.07 0.096,-0.069c0.042,0 0.078,0.015 0.086,0.032l0.021,0.068l0.063,0l0,-0.124c-0.026,-0.006 -0.081,-0.03 -0.166,-0.03c-0.117,0 -0.204,0.058 -0.204,0.148c0,0.089 0.048,0.139 0.149,0.178c0.099,0.039 0.148,0.068 0.148,0.119c0,0.044 -0.024,0.078 -0.102,0.078c-0.049,0 -0.098,-0.02 -0.11,-0.04l-0.019,-0.075l-0.069,0l0,0Z" style="fill-rule:nonzero;"/></g><g transform="matrix(12,0,0,12,664.275,205.419)"><path d="M0.041,-0.279c0,0.171 0.083,0.29 0.251,0.29c0.082,0 0.166,-0.036 0.202,-0.074l-0.02,-0.047c-0.03,0.023 -0.093,0.046 -0.149,0.046c-0.088,0 -0.161,-0.062 -0.166,-0.211l0.339,0c0.005,-0.024 0.006,-0.055 0.005,-0.096c-0.004,-0.129 -0.075,-0.199 -0.199,-0.199c-0.153,0 -0.262,0.116 -0.262,0.291l-0.001,0Zm0.118,-0.053c0.007,-0.138 0.056,-0.179 0.123,-0.179c0.078,0 0.106,0.061 0.106,0.137c0,0.012 0,0.029 -0.002,0.042l-0.227,0l0,0Z" style="fill-rule:nonzero;"/></g><g transform="matrix(12,0,0,12,670.791,205.419)"><path d="M0.045,-0.053l0,0.053l0.317,0l0,-0.052l-0.129,-0.009l0,-0.355c0.027,-0.02 0.073,-0.042 0.145,-0.042c0.026,0 0.047,0.007 0.058,0.013l0,-0.12c-0.007,-0.003 -0.018,-0.005 -0.032,-0.005c-0.105,0 -0.175,0.095 -0.186,0.115l-0.001,0l0.001,-0.064l0,-0.03l-0.023,-0.019l-0.003,0l-0.139,0.019l0,0.059l0.069,0.019l0,0.41l-0.077,0.008l0,0Z" style="fill-rule:nonzero;"/></g></g></g><g transform="matrix(0.652174,0,0,0.275168,168.603,55.3708)"><rect x="562" y="174" width="207" height="149" style="fill:none;stroke:#000;stroke-width:2px;"/><g transform="matrix(1.53333,0,0,3.63415,-299.733,-458.341)"><g transform="matrix(12,0,0,12,598.053,193.419)"><path d="M0.078,-0.743l0,0.716c0.013,0.012 0.095,0.038 0.197,0.038c0.18,0 0.289,-0.137 0.289,-0.308c0,-0.194 -0.104,-0.273 -0.217,-0.273c-0.072,0 -0.125,0.033 -0.158,0.065l0,-0.298l-0.024,-0.017l-0.003,0l-0.164,0.021l0,0.046l0.08,0.01Zm0.111,0.3c0.019,-0.022 0.061,-0.052 0.113,-0.052c0.081,0 0.144,0.066 0.142,0.214c-0.002,0.159 -0.069,0.236 -0.161,0.236c-0.045,0 -0.085,-0.011 -0.094,-0.032l0,-0.366l0,0Z" style="fill-rule:nonzero;"/></g><g transform="matrix(12,0,0,12,605.324,193.419)"><path d="M0.303,-0.57c-0.133,0 -0.264,0.104 -0.264,0.29c0,0.164 0.077,0.291 0.252,0.291c0.134,0 0.265,-0.102 0.265,-0.29c0,-0.164 -0.077,-0.291 -0.253,-0.291l0,0Zm0.13,0.299c0,0.148 -0.046,0.222 -0.136,0.222c-0.097,0 -0.135,-0.102 -0.135,-0.24c0,-0.148 0.046,-0.221 0.135,-0.221c0.099,0 0.136,0.103 0.136,0.239l0,0Z" style="fill-rule:nonzero;"/></g><g transform="matrix(12,0,0,12,612.461,193.419)"><path d="M0.303,-0.57c-0.133,0 -0.264,0.104 -0.264,0.29c0,0.164 0.077,0.291 0.252,0.291c0.134,0 0.265,-0.102 0.265,-0.29c0,-0.164 -0.077,-0.291 -0.253,-0.291l0,0Zm0.13,0.299c0,0.148 -0.046,0.222 -0.136,0.222c-0.097,0 -0.135,-0.102 -0.135,-0.24c0,-0.148 0.046,-0.221 0.135,-0.221c0.099,0 0.136,0.103 0.136,0.239l0,0Z" style="fill-rule:nonzero;"/></g><g transform="matrix(12,0,0,12,619.598,193.419)"><path d="M0.038,-0.053l0,0.053l0.245,0l0,-0.053l-0.07,-0.009l0,-0.077l-0.003,-0.051l0.096,-0.095l0.138,0.223l-0.059,0.009l0,0.053l0.245,0l0,-0.053l-0.059,-0.009l-0.191,-0.288l0.142,-0.139l0.077,-0.016l0,-0.05l-0.249,0l0,0.05l0.079,0.014l-0.218,0.227l0.002,-0.056l0,-0.483l-0.024,-0.017l-0.001,0l-0.163,0.021l0,0.047l0.077,0.009l0,0.681l-0.064,0.009l0,0Z" style="fill-rule:nonzero;"/></g><g transform="matrix(12,0,0,12,630.484,193.419)"><path d="M0.097,-0.727c0,0.038 0.026,0.067 0.064,0.067l0.001,0c0.051,0 0.076,-0.035 0.076,-0.078c0,-0.035 -0.024,-0.068 -0.067,-0.068l-0.001,0c-0.048,0 -0.073,0.037 -0.073,0.079l0,0Zm-0.059,0.674l0,0.053l0.269,0l0,-0.053l-0.078,-0.009l0,-0.487l-0.025,-0.019l-0.002,0l-0.156,0.02l0,0.057l0.071,0.02l0,0.409l-0.079,0.009l0,0Z" style="fill-rule:nonzero;"/></g><g transform="matrix(12,0,0,12,634.498,193.419)"><path d="M0.05,-0.053l0,0.053l0.243,0l0,-0.053l-0.067,-0.009l0,-0.378c0.035,-0.027 0.09,-0.052 0.14,-0.052c0.083,0 0.098,0.049 0.098,0.154l0,0.276l-0.063,0.009l0,0.053l0.245,0l0,-0.053l-0.07,-0.009l0,-0.275c0,-0.162 -0.032,-0.231 -0.16,-0.231c-0.073,0 -0.16,0.042 -0.203,0.081l0.001,-0.023l0,-0.039l-0.023,-0.019l-0.003,0l-0.144,0.019l0,0.059l0.07,0.019l0,0.409l-0.064,0.009l0,0Z" style="fill-rule:nonzero;"/></g><g transform="matrix(12,0,0,12,646.164,193.419)"><path d="M0.369,-0.337c-0.168,0.003 -0.327,0.053 -0.327,0.19c0,0.11 0.078,0.158 0.168,0.158c0.082,0 0.145,-0.052 0.166,-0.073l0,0.023c0,0.045 0.015,0.05 0.052,0.05c0.035,0 0.083,-0.011 0.108,-0.017l0,-0.048l-0.06,0l0,-0.317c0,-0.142 -0.048,-0.196 -0.189,-0.196c-0.094,0 -0.203,0.056 -0.226,0.077l0.024,0.051l0.001,0c0.036,-0.019 0.101,-0.047 0.174,-0.047c0.086,0 0.109,0.035 0.109,0.123l0,0.026l0,0Zm0,0.23c-0.033,0.025 -0.082,0.044 -0.112,0.044c-0.054,0 -0.094,-0.027 -0.094,-0.099c0,-0.064 0.055,-0.12 0.206,-0.12l0,0.175l0,0Z" style="fill-rule:nonzero;"/></g><g transform="matrix(12,0,0,12,652.891,193.419)"><path d="M0.05,-0.053l0,0.053l0.243,0l0,-0.053l-0.067,-0.009l0,-0.378c0.035,-0.027 0.09,-0.052 0.14,-0.052c0.083,0 0.098,0.049 0.098,0.154l0,0.276l-0.063,0.009l0,0.053l0.245,0l0,-0.053l-0.07,-0.009l0,-0.275c0,-0.162 -0.032,-0.231 -0.16,-0.231c-0.073,0 -0.16,0.042 -0.203,0.081l0.001,-0.023l0,-0.039l-0.023,-0.019l-0.003,0l-0.144,0.019l0,0.059l0.07,0.019l0,0.409l-0.064,0.009l0,0Z" style="fill-rule:nonzero;"/></g><g transform="matrix(12,0,0,12,582.684,205.419)"><path d="M0.097,-0.727c0,0.038 0.026,0.067 0.064,0.067l0.001,0c0.051,0 0.076,-0.035 0.076,-0.078c0,-0.035 -0.024,-0.068 -0.067,-0.068l-0.001,0c-0.048,0 -0.073,0.037 -0.073,0.079l0,0Zm-0.059,0.674l0,0.053l0.269,0l0,-0.053l-0.078,-0.009l0,-0.487l-0.025,-0.019l-0.002,0l-0.156,0.02l0,0.057l0.071,0.02l0,0.409l-0.079,0.009l0,0Z" style="fill-rule:nonzero;"/></g><g transform="matrix(12,0,0,12,586.697,205.419)"><path d="M0.05,-0.053l0,0.053l0.243,0l0,-0.053l-0.067,-0.009l0,-0.378c0.035,-0.027 0.09,-0.052 0.14,-0.052c0.083,0 0.098,0.049 0.098,0.154l0,0.276l-0.063,0.009l0,0.053l0.245,0l0,-0.053l-0.07,-0.009l0,-0.275c0,-0.162 -0.032,-0.231 -0.16,-0.231c-0.073,0 -0.16,0.042 -0.203,0.081l0.001,-0.023l0,-0.039l-0.023,-0.019l-0.003,0l-0.144,0.019l0,0.059l0.07,0.019l0,0.409l-0.064,0.009l0,0Z" style="fill-rule:nonzero;"/></g><g transform="matrix(12,0,0,12,594.754,205.419)"><rect x="0.112" y="-0.34" width="0.415" height="0.079" style="fill-rule:nonzero;"/></g><g transform="matrix(12,0,0,12,602.43,205.419)"><path d="M0.369,-0.337c-0.168,0.003 -0.327,0.053 -0.327,0.19c0,0.11 0.078,0.158 0.168,0.158c0.082,0 0.145,-0.052 0.166,-0.073l0,0.023c0,0.045 0.015,0.05 0.052,0.05c0.035,0 0.083,-0.011 0.108,-0.017l0,-0.048l-0.06,0l0,-0.317c0,-0.142 -0.048,-0.196 -0.189,-0.196c-0.094,0 -0.203,0.056 -0.226,0.077l0.024,0.051l0.001,0c0.036,-0.019 0.101,-0.047 0.174,-0.047c0.086,0 0.109,0.035 0.109,0.123l0,0.026l0,0Zm0,0.23c-0.033,0.025 -0.082,0.044 -0.112,0.044c-0.054,0 -0.094,-0.027 -0.094,-0.099c0,-0.064 0.055,-0.12 0.206,-0.12l0,0.175l0,0Z" style="fill-rule:nonzero;"/></g><g transform="matrix(12,0,0,12,609.156,205.419)"><path d="M0.306,0.011c0.176,0 0.285,-0.139 0.285,-0.308c0,-0.193 -0.104,-0.273 -0.218,-0.273c-0.08,0 -0.137,0.04 -0.169,0.076l0,-0.055l-0.022,-0.019l-0.003,0l-0.144,0.019l0,0.059l0.07,0.019l0,0.649l-0.073,0.011l0,0.053l0.284,0l0,-0.053l-0.1,-0.01l0,-0.097l-0.003,-0.083c0.023,0.006 0.062,0.012 0.093,0.012l0,0Zm-0.09,-0.459c0.02,-0.022 0.061,-0.048 0.112,-0.048c0.08,0 0.145,0.064 0.143,0.215c-0.002,0.17 -0.073,0.237 -0.162,0.237c-0.046,0 -0.084,-0.016 -0.093,-0.031l0,-0.373l0,0Z" style="fill-rule:nonzero;"/></g><g transform="matrix(12,0,0,12,616.738,205.419)"><path d="M0.306,0.011c0.176,0 0.285,-0.139 0.285,-0.308c0,-0.193 -0.104,-0.273 -0.218,-0.273c-0.08,0 -0.137,0.04 -0.169,0.076l0,-0.055l-0.022,-0.019l-0.003,0l-0.144,0.019l0,0.059l0.07,0.019l0,0.649l-0.073,0.011l0,0.053l0.284,0l0,-0.053l-0.1,-0.01l0,-0.097l-0.003,-0.083c0.023,0.006 0.062,0.012 0.093,0.012l0,0Zm-0.09,-0.459c0.02,-0.022 0.061,-0.048 0.112,-0.048c0.08,0 0.145,0.064 0.143,0.215c-0.002,0.17 -0.073,0.237 -0.162,0.237c-0.046,0 -0.084,-0.016 -0.093,-0.031l0,-0.373l0,0Z" style="fill-rule:nonzero;"/></g><g transform="matrix(12,0,0,12,627.93,205.419)"><path d="M0.078,-0.743l0,0.716c0.013,0.012 0.095,0.038 0.197,0.038c0.18,0 0.289,-0.137 0.289,-0.308c0,-0.194 -0.104,-0.273 -0.217,-0.273c-0.072,0 -0.125,0.033 -0.158,0.065l0,-0.298l-0.024,-0.017l-0.003,0l-0.164,0.021l0,0.046l0.08,0.01Zm0.111,0.3c0.019,-0.022 0.061,-0.052 0.113,-0.052c0.081,0 0.144,0.066 0.142,0.214c-0.002,0.159 -0.069,0.236 -0.161,0.236c-0.045,0 -0.085,-0.011 -0.094,-0.032l0,-0.366l0,0Z" style="fill-rule:nonzero;"/></g><g transform="matrix(12,0,0,12,635.201,205.419)"><path d="M0.045,-0.053l0,0.053l0.317,0l0,-0.052l-0.129,-0.009l0,-0.355c0.027,-0.02 0.073,-0.042 0.145,-0.042c0.026,0 0.047,0.007 0.058,0.013l0,-0.12c-0.007,-0.003 -0.018,-0.005 -0.032,-0.005c-0.105,0 -0.175,0.095 -0.186,0.115l-0.001,0l0.001,-0.064l0,-0.03l-0.023,-0.019l-0.003,0l-0.139,0.019l0,0.059l0.069,0.019l0,0.41l-0.077,0.008l0,0Z" style="fill-rule:nonzero;"/></g><g transform="matrix(12,0,0,12,640.727,205.419)"><path d="M0.303,-0.57c-0.133,0 -0.264,0.104 -0.264,0.29c0,0.164 0.077,0.291 0.252,0.291c0.134,0 0.265,-0.102 0.265,-0.29c0,-0.164 -0.077,-0.291 -0.253,-0.291l0,0Zm0.13,0.299c0,0.148 -0.046,0.222 -0.136,0.222c-0.097,0 -0.135,-0.102 -0.135,-0.24c0,-0.148 0.046,-0.221 0.135,-0.221c0.099,0 0.136,0.103 0.136,0.239l0,0Z" style="fill-rule:nonzero;"/></g><g transform="matrix(12,0,0,12,647.863,205.419)"><path d="M0.047,-0.491l0.16,0.499l0.1,0l0.101,-0.354l0.019,-0.118l0.025,0.118l0.106,0.354l0.102,0l0.153,-0.499l0.055,-0.012l0,-0.052l-0.211,0l0,0.052l0.075,0.013l-0.078,0.288l-0.029,0.122l-0.027,-0.124l-0.1,-0.351l-0.104,0l-0.099,0.352l-0.026,0.124l-0.028,-0.124l-0.08,-0.288l0.077,-0.012l0,-0.052l-0.245,0l0,0.052l0.054,0.012l0,0Z" style="fill-rule:nonzero;"/></g><g transform="matrix(12,0,0,12,658.164,205.419)"><path d="M0.058,-0.159l0,0.128c0.034,0.015 0.117,0.042 0.192,0.042c0.135,0 0.215,-0.066 0.215,-0.164c0,-0.101 -0.083,-0.14 -0.171,-0.179c-0.066,-0.028 -0.129,-0.047 -0.129,-0.112c0,-0.04 0.033,-0.07 0.096,-0.069c0.042,0 0.078,0.015 0.086,0.032l0.021,0.068l0.063,0l0,-0.124c-0.026,-0.006 -0.081,-0.03 -0.166,-0.03c-0.117,0 -0.204,0.058 -0.204,0.148c0,0.089 0.048,0.139 0.149,0.178c0.099,0.039 0.148,0.068 0.148,0.119c0,0.044 -0.024,0.078 -0.102,0.078c-0.049,0 -0.098,-0.02 -0.11,-0.04l-0.019,-0.075l-0.069,0l0,0Z" style="fill-rule:nonzero;"/></g><g transform="matrix(12,0,0,12,664.275,205.419)"><path d="M0.041,-0.279c0,0.171 0.083,0.29 0.251,0.29c0.082,0 0.166,-0.036 0.202,-0.074l-0.02,-0.047c-0.03,0.023 -0.093,0.046 -0.149,0.046c-0.088,0 -0.161,-0.062 -0.166,-0.211l0.339,0c0.005,-0.024 0.006,-0.055 0.005,-0.096c-0.004,-0.129 -0.075,-0.199 -0.199,-0.199c-0.153,0 -0.262,0.116 -0.262,0.291l-0.001,0Zm0.118,-0.053c0.007,-0.138 0.056,-0.179 0.123,-0.179c0.078,0 0.106,0.061 0.106,0.137c0,0.012 0,0.029 -0.002,0.042l-0.227,0l0,0Z" style="fill-rule:nonzero;"/></g><g transform="matrix(12,0,0,12,670.791,205.419)"><path d="M0.045,-0.053l0,0.053l0.317,0l0,-0.052l-0.129,-0.009l0,-0.355c0.027,-0.02 0.073,-0.042 0.145,-0.042c0.026,0 0.047,0.007 0.058,0.013l0,-0.12c-0.007,-0.003 -0.018,-0.005 -0.032,-0.005c-0.105,0 -0.175,0.095 -0.186,0.115l-0.001,0l0.001,-0.064l0,-0.03l-0.023,-0.019l-0.003,0l-0.139,0.019l0,0.059l0.069,0.019l0,0.41l-0.077,0.008l0,0Z" style="fill-rule:nonzero;"/></g></g></g><g transform="matrix(0.652174,0,0,0.240516,168.603,107.563)"><rect x="562" y="174" width="207" height="149" style="fill:none;stroke:#000;stroke-width:2.03px;"/><g transform="matrix(1.53333,0,0,4.15773,-299.733,-549.444)"><g transform="matrix(12,0,0,12,595.565,196.837)"><path d="M0.058,-0.159l0,0.128c0.034,0.015 0.117,0.042 0.192,0.042c0.135,0 0.215,-0.066 0.215,-0.164c0,-0.101 -0.083,-0.14 -0.171,-0.179c-0.066,-0.028 -0.129,-0.047 -0.129,-0.112c0,-0.04 0.033,-0.07 0.096,-0.069c0.042,0 0.078,0.015 0.086,0.032l0.021,0.068l0.063,0l0,-0.124c-0.026,-0.006 -0.081,-0.03 -0.166,-0.03c-0.117,0 -0.204,0.058 -0.204,0.148c0,0.089 0.048,0.139 0.149,0.178c0.099,0.039 0.148,0.068 0.148,0.119c0,0.044 -0.024,0.078 -0.102,0.078c-0.049,0 -0.098,-0.02 -0.11,-0.04l-0.019,-0.075l-0.069,0l0,0Z" style="fill-rule:nonzero;"/></g><g transform="matrix(12,0,0,12,601.677,196.837)"><path d="M0.071,0.242c0.01,0.004 0.037,0.007 0.057,0.007c0.116,0 0.165,-0.079 0.226,-0.232c0.016,-0.035 0.073,-0.202 0.171,-0.508l0.05,-0.012l0,-0.052l-0.205,0l0,0.052l0.066,0.012l-0.089,0.295l-0.039,0.142l-0.043,-0.142l-0.095,-0.295l0.077,-0.012l0,-0.052l-0.248,0l0,0.052l0.046,0.012l0.183,0.491l0.055,0c-0.051,0.137 -0.103,0.158 -0.154,0.158c-0.02,0 -0.049,-0.004 -0.058,-0.009l0,0.093l0,0Z" style="fill-rule:nonzero;"/></g><g transform="matrix(12,0,0,12,608.591,196.837)"><path d="M0.05,-0.053l0,0.053l0.243,0l0,-0.053l-0.067,-0.009l0,-0.378c0.035,-0.027 0.09,-0.052 0.14,-0.052c0.083,0 0.098,0.049 0.098,0.154l0,0.276l-0.063,0.009l0,0.053l0.245,0l0,-0.053l-0.07,-0.009l0,-0.275c0,-0.162 -0.032,-0.231 -0.16,-0.231c-0.073,0 -0.16,0.042 -0.203,0.081l0.001,-0.023l0,-0.039l-0.023,-0.019l-0.003,0l-0.144,0.019l0,0.059l0.07,0.019l0,0.409l-0.064,0.009l0,0Z" style="fill-rule:nonzero;"/></g><g transform="matrix(12,0,0,12,616.647,196.837)"><path d="M0.319,-0.57c-0.186,0 -0.282,0.137 -0.281,0.301c0.001,0.159 0.085,0.28 0.253,0.28c0.077,0 0.153,-0.038 0.186,-0.073l-0.021,-0.045c-0.029,0.021 -0.078,0.043 -0.14,0.043c-0.087,0 -0.16,-0.072 -0.159,-0.241c0,-0.139 0.057,-0.208 0.141,-0.208c0.036,0 0.067,0.01 0.076,0.032l0.022,0.091l0.068,0l0.005,-0.15c-0.026,-0.01 -0.083,-0.03 -0.15,-0.03l0,0Z" style="fill-rule:nonzero;"/></g><g transform="matrix(12,0,0,12,626.392,196.837)"><path d="M0.058,-0.159l0,0.128c0.034,0.015 0.117,0.042 0.192,0.042c0.135,0 0.215,-0.066 0.215,-0.164c0,-0.101 -0.083,-0.14 -0.171,-0.179c-0.066,-0.028 -0.129,-0.047 -0.129,-0.112c0,-0.04 0.033,-0.07 0.096,-0.069c0.042,0 0.078,0.015 0.086,0.032l0.021,0.068l0.063,0l0,-0.124c-0.026,-0.006 -0.081,-0.03 -0.166,-0.03c-0.117,0 -0.204,0.058 -0.204,0.148c0,0.089 0.048,0.139 0.149,0.178c0.099,0.039 0.148,0.068 0.148,0.119c0,0.044 -0.024,0.078 -0.102,0.078c-0.049,0 -0.098,-0.02 -0.11,-0.04l-0.019,-0.075l-0.069,0l0,0Z" style="fill-rule:nonzero;"/></g><g transform="matrix(12,0,0,12,632.503,196.837)"><path d="M0.041,-0.279c0,0.171 0.083,0.29 0.251,0.29c0.082,0 0.166,-0.036 0.202,-0.074l-0.02,-0.047c-0.03,0.023 -0.093,0.046 -0.149,0.046c-0.088,0 -0.161,-0.062 -0.166,-0.211l0.339,0c0.005,-0.024 0.006,-0.055 0.005,-0.096c-0.004,-0.129 -0.075,-0.199 -0.199,-0.199c-0.153,0 -0.262,0.116 -0.262,0.291l-0.001,0Zm0.118,-0.053c0.007,-0.138 0.056,-0.179 0.123,-0.179c0.078,0 0.106,0.061 0.106,0.137c0,0.012 0,0.029 -0.002,0.042l-0.227,0l0,0Z" style="fill-rule:nonzero;"/></g><g transform="matrix(12,0,0,12,639.019,196.837)"><path d="M0.045,-0.053l0,0.053l0.317,0l0,-0.052l-0.129,-0.009l0,-0.355c0.027,-0.02 0.073,-0.042 0.145,-0.042c0.026,0 0.047,0.007 0.058,0.013l0,-0.12c-0.007,-0.003 -0.018,-0.005 -0.032,-0.005c-0.105,0 -0.175,0.095 -0.186,0.115l-0.001,0l0.001,-0.064l0,-0.03l-0.023,-0.019l-0.003,0l-0.139,0.019l0,0.059l0.069,0.019l0,0.41l-0.077,0.008l0,0Z" style="fill-rule:nonzero;"/></g><g transform="matrix(12,0,0,12,644.544,196.837)"><path d="M0.044,-0.491l0.201,0.499l0.091,0l0.189,-0.498l0.051,-0.013l0,-0.052l-0.207,0l0,0.052l0.068,0.012l-0.093,0.281l-0.036,0.127l-0.043,-0.132l-0.096,-0.276l0.074,-0.012l0,-0.052l-0.244,0l0,0.052l0.045,0.012l0,0Z" style="fill-rule:nonzero;"/></g><g transform="matrix(12,0,0,12,651.394,196.837)"><path d="M0.041,-0.279c0,0.171 0.083,0.29 0.251,0.29c0.082,0 0.166,-0.036 0.202,-0.074l-0.02,-0.047c-0.03,0.023 -0.093,0.046 -0.149,0.046c-0.088,0 -0.161,-0.062 -0.166,-0.211l0.339,0c0.005,-0.024 0.006,-0.055 0.005,-0.096c-0.004,-0.129 -0.075,-0.199 -0.199,-0.199c-0.153,0 -0.262,0.116 -0.262,0.291l-0.001,0Zm0.118,-0.053c0.007,-0.138 0.056,-0.179 0.123,-0.179c0.078,0 0.106,0.061 0.106,0.137c0,0.012 0,0.029 -0.002,0.042l-0.227,0l0,0Z" style="fill-rule:nonzero;"/></g><g transform="matrix(12,0,0,12,657.909,196.837)"><path d="M0.045,-0.053l0,0.053l0.317,0l0,-0.052l-0.129,-0.009l0,-0.355c0.027,-0.02 0.073,-0.042 0.145,-0.042c0.026,0 0.047,0.007 0.058,0.013l0,-0.12c-0.007,-0.003 -0.018,-0.005 -0.032,-0.005c-0.105,0 -0.175,0.095 -0.186,0.115l-0.001,0l0.001,-0.064l0,-0.03l-0.023,-0.019l-0.003,0l-0.139,0.019l0,0.059l0.069,0.019l0,0.41l-0.077,0.008l0,0Z" style="fill-rule:nonzero;"/></g></g></g><g transform="matrix(0.710145,0,0,1.1443,130.024,-177.357)"><rect x="562" y="174" width="207" height="149" style="fill:none;stroke:#000;stroke-width:1.05px;"/><g transform="matrix(1.40816,0,0,0.8739,-229.388,21.9413)"><g transform="matrix(12,0,0,12,567,195.838)"><path d="M0.078,-0.743l0,0.716c0.013,0.012 0.095,0.038 0.197,0.038c0.18,0 0.289,-0.137 0.289,-0.308c0,-0.194 -0.104,-0.273 -0.217,-0.273c-0.072,0 -0.125,0.033 -0.158,0.065l0,-0.298l-0.024,-0.017l-0.003,0l-0.164,0.021l0,0.046l0.08,0.01Zm0.111,0.3c0.019,-0.022 0.061,-0.052 0.113,-0.052c0.081,0 0.144,0.066 0.142,0.214c-0.002,0.159 -0.069,0.236 -0.161,0.236c-0.045,0 -0.085,-0.011 -0.094,-0.032l0,-0.366l0,0Z" style="fill-rule:nonzero;"/></g><g transform="matrix(12,0,0,12,574.271,195.838)"><path d="M0.303,-0.57c-0.133,0 -0.264,0.104 -0.264,0.29c0,0.164 0.077,0.291 0.252,0.291c0.134,0 0.265,-0.102 0.265,-0.29c0,-0.164 -0.077,-0.291 -0.253,-0.291l0,0Zm0.13,0.299c0,0.148 -0.046,0.222 -0.136,0.222c-0.097,0 -0.135,-0.102 -0.135,-0.24c0,-0.148 0.046,-0.221 0.135,-0.221c0.099,0 0.136,0.103 0.136,0.239l0,0Z" style="fill-rule:nonzero;"/></g><g transform="matrix(12,0,0,12,581.408,195.838)"><path d="M0.303,-0.57c-0.133,0 -0.264,0.104 -0.264,0.29c0,0.164 0.077,0.291 0.252,0.291c0.134,0 0.265,-0.102 0.265,-0.29c0,-0.164 -0.077,-0.291 -0.253,-0.291l0,0Zm0.13,0.299c0,0.148 -0.046,0.222 -0.136,0.222c-0.097,0 -0.135,-0.102 -0.135,-0.24c0,-0.148 0.046,-0.221 0.135,-0.221c0.099,0 0.136,0.103 0.136,0.239l0,0Z" style="fill-rule:nonzero;"/></g><g transform="matrix(12,0,0,12,588.545,195.838)"><path d="M0.038,-0.053l0,0.053l0.245,0l0,-0.053l-0.07,-0.009l0,-0.077l-0.003,-0.051l0.096,-0.095l0.138,0.223l-0.059,0.009l0,0.053l0.245,0l0,-0.053l-0.059,-0.009l-0.191,-0.288l0.142,-0.139l0.077,-0.016l0,-0.05l-0.249,0l0,0.05l0.079,0.014l-0.218,0.227l0.002,-0.056l0,-0.483l-0.024,-0.017l-0.001,0l-0.163,0.021l0,0.047l0.077,0.009l0,0.681l-0.064,0.009l0,0Z" style="fill-rule:nonzero;"/></g><g transform="matrix(12,0,0,12,595.822,195.838)"><path d="M0.058,-0.159l0,0.128c0.034,0.015 0.117,0.042 0.192,0.042c0.135,0 0.215,-0.066 0.215,-0.164c0,-0.101 -0.083,-0.14 -0.171,-0.179c-0.066,-0.028 -0.129,-0.047 -0.129,-0.112c0,-0.04 0.033,-0.07 0.096,-0.069c0.042,0 0.078,0.015 0.086,0.032l0.021,0.068l0.063,0l0,-0.124c-0.026,-0.006 -0.081,-0.03 -0.166,-0.03c-0.117,0 -0.204,0.058 -0.204,0.148c0,0.089 0.048,0.139 0.149,0.178c0.099,0.039 0.148,0.068 0.148,0.119c0,0.044 -0.024,0.078 -0.102,0.078c-0.049,0 -0.098,-0.02 -0.11,-0.04l-0.019,-0.075l-0.069,0l0,0Z" style="fill-rule:nonzero;"/></g><g transform="matrix(12,0,0,12,601.934,195.838)"><path d="M0.043,-0.053l0,0.053l0.24,0l0,-0.053l-0.069,-0.009l0,-0.379c0.037,-0.029 0.093,-0.051 0.141,-0.051c0.085,0 0.1,0.05 0.1,0.154l0,0.277l-0.064,0.008l0,0.053l0.246,0l0,-0.053l-0.071,-0.009l0,-0.275c0,-0.161 -0.033,-0.231 -0.16,-0.231c-0.084,0 -0.162,0.048 -0.197,0.079l0.004,-0.088l0,-0.226l-0.024,-0.017l-0.002,0l-0.166,0.021l0,0.047l0.081,0.009l0,0.682l-0.059,0.008l0,0Z" style="fill-rule:nonzero;"/></g><g transform="matrix(12,0,0,12,609.879,195.838)"><path d="M0.041,-0.279c0,0.171 0.083,0.29 0.251,0.29c0.082,0 0.166,-0.036 0.202,-0.074l-0.02,-0.047c-0.03,0.023 -0.093,0.046 -0.149,0.046c-0.088,0 -0.161,-0.062 -0.166,-0.211l0.339,0c0.005,-0.024 0.006,-0.055 0.005,-0.096c-0.004,-0.129 -0.075,-0.199 -0.199,-0.199c-0.153,0 -0.262,0.116 -0.262,0.291l-0.001,0Zm0.118,-0.053c0.007,-0.138 0.056,-0.179 0.123,-0.179c0.078,0 0.106,0.061 0.106,0.137c0,0.012 0,0.029 -0.002,0.042l-0.227,0l0,0Z" style="fill-rule:nonzero;"/></g><g transform="matrix(12,0,0,12,616.395,195.838)"><path d="M0.036,-0.053l0,0.053l0.273,0l0,-0.053l-0.083,-0.009l0,-0.741l-0.024,-0.017l-0.001,0l-0.166,0.021l0,0.047l0.08,0.009l0,0.681l-0.079,0.009l0,0Z" style="fill-rule:nonzero;"/></g><g transform="matrix(12,0,0,12,620.426,195.838)"><path d="M0.043,-0.053l0,0.053l0.301,0l0,-0.053l-0.106,-0.009l0,-0.422l0.134,0l0,-0.07l-0.134,0l-0.001,-0.085c0,-0.077 0.022,-0.097 0.086,-0.097c0.047,0 0.084,0.016 0.094,0.025l0,-0.109c-0.011,-0.004 -0.025,-0.008 -0.058,-0.008c-0.116,0 -0.233,0.099 -0.233,0.227l0,0.047l-0.093,0.022l0,0.048l0.093,0l0,0.422l-0.083,0.009l0,0Z" style="fill-rule:nonzero;"/></g><g transform="matrix(12,0,0,12,628.887,195.838)"><path d="M0.369,-0.337c-0.168,0.003 -0.327,0.053 -0.327,0.19c0,0.11 0.078,0.158 0.168,0.158c0.082,0 0.145,-0.052 0.166,-0.073l0,0.023c0,0.045 0.015,0.05 0.052,0.05c0.035,0 0.083,-0.011 0.108,-0.017l0,-0.048l-0.06,0l0,-0.317c0,-0.142 -0.048,-0.196 -0.189,-0.196c-0.094,0 -0.203,0.056 -0.226,0.077l0.024,0.051l0.001,0c0.036,-0.019 0.101,-0.047 0.174,-0.047c0.086,0 0.109,0.035 0.109,0.123l0,0.026l0,0Zm0,0.23c-0.033,0.025 -0.082,0.044 -0.112,0.044c-0.054,0 -0.094,-0.027 -0.094,-0.099c0,-0.064 0.055,-0.12 0.206,-0.12l0,0.175l0,0Z" style="fill-rule:nonzero;"/></g><g transform="matrix(12,0,0,12,635.613,195.838)"><path d="M0.306,0.011c0.176,0 0.285,-0.139 0.285,-0.308c0,-0.193 -0.104,-0.273 -0.218,-0.273c-0.08,0 -0.137,0.04 -0.169,0.076l0,-0.055l-0.022,-0.019l-0.003,0l-0.144,0.019l0,0.059l0.07,0.019l0,0.649l-0.073,0.011l0,0.053l0.284,0l0,-0.053l-0.1,-0.01l0,-0.097l-0.003,-0.083c0.023,0.006 0.062,0.012 0.093,0.012l0,0Zm-0.09,-0.459c0.02,-0.022 0.061,-0.048 0.112,-0.048c0.08,0 0.145,0.064 0.143,0.215c-0.002,0.17 -0.073,0.237 -0.162,0.237c-0.046,0 -0.084,-0.016 -0.093,-0.031l0,-0.373l0,0Z" style="fill-rule:nonzero;"/></g><g transform="matrix(12,0,0,12,643.195,195.838)"><path d="M0.306,0.011c0.176,0 0.285,-0.139 0.285,-0.308c0,-0.193 -0.104,-0.273 -0.218,-0.273c-0.08,0 -0.137,0.04 -0.169,0.076l0,-0.055l-0.022,-0.019l-0.003,0l-0.144,0.019l0,0.059l0.07,0.019l0,0.649l-0.073,0.011l0,0.053l0.284,0l0,-0.053l-0.1,-0.01l0,-0.097l-0.003,-0.083c0.023,0.006 0.062,0.012 0.093,0.012l0,0Zm-0.09,-0.459c0.02,-0.022 0.061,-0.048 0.112,-0.048c0.08,0 0.145,0.064 0.143,0.215c-0.002,0.17 -0.073,0.237 -0.162,0.237c-0.046,0 -0.084,-0.016 -0.093,-0.031l0,-0.373l0,0Z" style="fill-rule:nonzero;"/></g></g></g></g></g><path d="M696,292l-696,0l0,-292l696,0l0,292Zm-695,-291l0,290l694,0l0,-290l-694,0Z"/></svg>