<svg id="Layer_1" data-name="Layer 1" xmlns="http://www.w3.org/2000/svg" width="184.25" height="184.25" viewBox="0 0 184.25 184.25"><defs><style>.cls-1{fill:#b75856;}.cls-2{fill:#828386;}</style></defs><path class="cls-1" d="M58.87,72.61V86.16c0,10.78-6,17-15.55,17.55V96.9a8.68,8.68,0,0,0,5.16-2.35,8,8,0,0,0,1.94-4.88s0-1,0-1H42.57v-16Z"/><path class="cls-2" d="M42.57,68.25V52.19h16.3V68.25Z"/><path class="cls-2" d="M21.87,68.25V52.19h16.3V68.25Z"/><path class="cls-2" d="M21.87,88.67V72.61h16.3V88.67Z"/><path class="cls-2" d="M67.75,72.63h5l3.75,11h.05l3.55-11h5V88.68H81.72V77.31h0L77.75,88.68H75L71.09,77.42h0V88.68h-3.3Z"/><path class="cls-2" d="M103.5,84.9c0,1.4,1.19,2,2.44,2,.93,0,2.09-.36,2.09-1.48,0-1-1.32-1.31-3.61-1.8-1.85-.4-3.69-1.06-3.69-3.1,0-3,2.56-3.73,5.06-3.73s4.88.85,5.12,3.7h-3c-.09-1.23-1-1.57-2.18-1.57-.72,0-1.78.14-1.78,1.08,0,1.15,1.8,1.3,3.62,1.73s3.69,1.1,3.69,3.26c0,3.06-2.65,4-5.31,4s-5.32-1-5.46-4.09Z"/><path class="cls-2" d="M117.14,77.06h2.33V79.2h-2.33V85c0,1.08.27,1.35,1.34,1.35a4.68,4.68,0,0,0,1-.09V88.7a12.12,12.12,0,0,1-1.86.12c-2,0-3.67-.45-3.67-2.77V79.2H112V77.06h1.93V73.58h3.2Z"/><path class="cls-2" d="M123.48,84.9c0,1.4,1.19,2,2.45,2,.92,0,2.08-.36,2.08-1.48,0-1-1.32-1.31-3.61-1.8-1.85-.4-3.69-1.06-3.69-3.1,0-3,2.56-3.73,5.06-3.73s4.87.85,5.12,3.7h-3c-.09-1.23-1-1.57-2.18-1.57-.72,0-1.78.14-1.78,1.08,0,1.15,1.8,1.3,3.62,1.73s3.68,1.1,3.68,3.26c0,3.06-2.65,4-5.3,4s-5.32-1-5.46-4.09Z"/><path class="cls-2" d="M133.36,72.63h3.19v8.61l4-4.18h3.77L140,81.33l4.88,7.35H141l-3.19-5.19-1.24,1.19v4h-3.19Z"/><path class="cls-2" d="M67.75,94.36h3.19V103l4-4.18h3.78l-4.39,4.27,4.88,7.35H75.36l-3.19-5.19-1.23,1.19v4H67.75Z"/><path class="cls-2" d="M80.35,98.79h3v1.62h.06A4.16,4.16,0,0,1,87,98.48c3.39,0,4.24,1.91,4.24,4.78v7.15H88.06v-6.56c0-1.91-.56-2.85-2-2.85-1.73,0-2.48,1-2.48,3.32v6.09H80.35Z"/><path class="cls-2" d="M97.33,97.17H94.14V94.36h3.19Zm-3.19,1.62h3.19v11.62H94.14Z"/><path class="cls-2" d="M100.21,94.36h3.2v6h.06a4.1,4.1,0,0,1,3.4-1.93c3.39,0,4.25,1.91,4.25,4.78v7.15h-3.2v-6.56c0-1.91-.56-2.85-2-2.85-1.73,0-2.47,1-2.47,3.32v6.09h-3.2Z"/><path class="cls-2" d="M119.18,98.48c3.67,0,6,2.43,6,6.13s-2.36,6.12-6,6.12-6-2.43-6-6.12S115.54,98.48,119.18,98.48Zm0,9.84c2.18,0,2.84-1.86,2.84-3.71s-.66-3.73-2.84-3.73-2.81,1.87-2.81,3.73S117,108.32,119.18,108.32Z"/><path class="cls-2" d="M133,110.41h-3.55l-4-11.62h3.35l2.45,7.94h.05l2.45-7.94h3.17Z"/><path class="cls-2" d="M138.22,98.79h3v1.62h.06a4.15,4.15,0,0,1,3.56-1.93c3.39,0,4.24,1.91,4.24,4.78v7.15h-3.19v-6.56c0-1.91-.56-2.85-2-2.85-1.74,0-2.48,1-2.48,3.32v6.09h-3.19Z"/><path class="cls-2" d="M151.41,102.37c.18-3,2.86-3.89,5.46-3.89,2.32,0,5.11.51,5.11,3.3v6a6,6,0,0,0,.4,2.58h-3.24a4.73,4.73,0,0,1-.22-1.12,5.31,5.31,0,0,1-3.91,1.44c-2.2,0-4-1.1-4-3.49,0-2.63,2-3.26,4-3.53s3.77-.22,3.77-1.52-.94-1.58-2.06-1.58-2,.5-2.12,1.76Zm7.37,2.36c-.53.47-1.66.49-2.65.67s-1.88.54-1.88,1.71.92,1.48,1.95,1.48a2.36,2.36,0,0,0,2.58-2.67Z"/><path class="cls-2" d="M145.27,80.64c.18-3,2.85-3.89,5.46-3.89,2.32,0,5.1.51,5.1,3.3v6a6,6,0,0,0,.41,2.59H153a4.73,4.73,0,0,1-.22-1.12A5.35,5.35,0,0,1,148.87,89c-2.21,0-4-1.1-4-3.48,0-2.63,2-3.26,4-3.53s3.77-.22,3.77-1.53-.94-1.57-2.07-1.57-2,.5-2.11,1.76ZM152.64,83c-.54.47-1.66.49-2.65.67s-1.89.54-1.89,1.71.92,1.48,2,1.48a2.37,2.37,0,0,0,2.58-2.67Z"/><path class="cls-2" d="M75.63,132.14H72.08l-4-11.62h3.35l2.45,7.94h0l2.45-7.94h3.17Z"/><path class="cls-2" d="M85.55,116.1h7c4,0,5.55,2.54,5.55,5.14s-1.55,5.15-5.55,5.15H89.08v5.75H85.55Zm3.53,7.55h2.45c1.64,0,3.1-.36,3.1-2.41s-1.46-2.4-3.1-2.4H89.08Z"/><path class="cls-2" d="M99.54,120.52h3v2.16h0a4.11,4.11,0,0,1,3.71-2.47,2.33,2.33,0,0,1,.7.11v3a5.76,5.76,0,0,0-1.15-.11c-2.34,0-3.15,1.68-3.15,3.73v5.23H99.54Z"/><path class="cls-2" d="M107.78,124.1c.18-3,2.85-3.89,5.46-3.89,2.32,0,5.1.52,5.1,3.3v6a6,6,0,0,0,.41,2.58h-3.24a4.73,4.73,0,0,1-.22-1.12,5.32,5.32,0,0,1-3.91,1.44c-2.21,0-4-1.1-4-3.48,0-2.64,2-3.26,4-3.53s3.77-.23,3.77-1.53-.94-1.58-2.06-1.58-2,.5-2.12,1.76Zm7.37,2.36c-.54.47-1.66.49-2.65.67s-1.89.54-1.89,1.71.92,1.48,2,1.48a2.37,2.37,0,0,0,2.58-2.67Z"/><path class="cls-2" d="M120.26,129.74l5.88-6.81h-5.59v-2.41h9.66v2.41l-6,6.81h6.46v2.4H120.26Z"/><path class="cls-2" d="M134.37,127.11c.09,2,1.08,2.94,2.85,2.94a2.62,2.62,0,0,0,2.52-1.5h2.81a5.23,5.23,0,0,1-5.44,3.91c-3.66,0-5.93-2.52-5.93-6.12a5.82,5.82,0,0,1,5.93-6.13c4,0,5.87,3.33,5.64,6.9Zm5.19-2c-.29-1.62-1-2.48-2.54-2.48a2.52,2.52,0,0,0-2.65,2.48Z"/><path class="cls-2" d="M90.47,83.65c.09,2,1.08,2.94,2.85,2.94a2.62,2.62,0,0,0,2.52-1.51h2.81A5.22,5.22,0,0,1,93.21,89c-3.66,0-5.93-2.51-5.93-6.11a5.82,5.82,0,0,1,5.93-6.13c4,0,5.87,3.32,5.64,6.9Zm5.19-2c-.29-1.61-1-2.47-2.54-2.47a2.52,2.52,0,0,0-2.65,2.47Z"/><polygon class="cls-2" points="94.49 72.63 93.09 74.37 91.65 72.63 89.13 72.63 91.55 75.65 94.58 75.65 97.01 72.63 94.49 72.63"/><polygon class="cls-2" points="154.34 72.63 150.96 72.63 148.98 75.71 151.37 75.71 154.34 72.63"/></svg>